<svg width="343" height="150" viewBox="0 0 343 150" fill="none" xmlns="http://www.w3.org/2000/svg">
<mask id="mask0_3004_5194" style="mask-type:luminance" maskUnits="userSpaceOnUse" x="12" y="73" width="321" height="55">
<path d="M12.2168 73.5598H332.544V127.825H12.2168V73.5598Z" fill="white"/>
</mask>
<g mask="url(#mask0_3004_5194)">
<g opacity="0.5">
<path d="M329.492 120.388L12.2168 127.825V73.5597H332.545L329.492 120.388Z" fill="black"/>
</g>
</g>
<path d="M7.22645e-07 87.4831V115.005C-0.00192368 120.9 3.83982 126.108 9.47317 127.847L11.7157 128.529C13.0968 128.956 14.5382 129.157 15.9834 129.121L30.8013 128.776C29.0411 122.617 28.8865 116.11 30.3516 109.875C35.0933 89.6923 55.2982 77.1753 75.4807 81.9171C95.6631 86.6594 108.18 106.864 103.438 127.047L254.214 123.46C253.97 121.7 253.851 119.923 253.859 118.145C253.949 97.413 270.829 80.6797 291.561 80.7701C312.293 80.8606 329.025 97.7401 328.936 118.472C328.936 119.203 328.876 119.924 328.876 120.645C329.073 120.566 329.281 120.487 329.479 120.388L334.635 118.087C339.721 115.789 342.991 110.727 342.993 105.146V49.0952C342.993 43.8229 340.072 38.9844 335.406 36.5295L296.652 16.1501C296.209 15.914 295.867 15.5221 295.694 15.0506C295.305 13.9903 295.849 12.8151 296.909 12.4257L301.651 10.7271C302.048 10.5905 302.335 10.2396 302.388 9.82267C302.467 9.21648 302.039 8.66162 301.433 8.58337C283.02 6.01493 211.4 -3.34984 173.753 1.25333C130.327 6.56788 88.709 44.2547 88.709 44.2547C56.7524 43.0596 26.9191 54.1826 14.077 59.764C9.93118 61.5736 6.74181 65.0497 5.29466 69.336L0.898695 82.3558C0.3233 84.005 0.0198862 85.7363 7.22645e-07 87.4831Z" fill="#23A6BF"/>
<path d="M254.251 123.46C254.032 121.807 253.923 120.14 253.925 118.472C253.925 117.622 253.954 116.783 254.004 115.943L226.739 104.79C225.143 104.141 223.421 103.86 221.701 103.97L126.867 110.194C125.317 110.292 123.803 110.709 122.422 111.418L104.404 120.685C104.275 122.827 103.967 124.955 103.484 127.046L254.251 123.46Z" fill="#1A2E35"/>
<path d="M343 105.146V103.714L327.58 108.436C328.479 111.705 328.934 115.081 328.933 118.472C328.933 119.203 328.874 119.924 328.874 120.645C329.071 120.566 329.279 120.487 329.476 120.389L334.643 118.087C339.729 115.789 342.998 110.727 343 105.146Z" fill="#1A2E35"/>
<path d="M4.38086 124.883C5.85238 126.245 7.61128 127.257 9.52734 127.847L11.7699 128.529C13.151 128.957 14.5924 129.157 16.0376 129.122L30.8555 128.776C30.3185 126.903 29.9324 124.99 29.6995 123.056L4.38086 124.883Z" fill="#1A2E35"/>
<path d="M291.494 77.4067C289.789 77.4061 288.087 77.5119 286.396 77.723C263.897 80.5332 247.935 101.05 250.745 123.549L254.301 123.46C254.057 121.699 253.938 119.922 253.946 118.144C254.037 97.4128 270.916 80.6795 291.648 80.7699C312.38 80.8604 329.112 97.7399 329.022 118.471C329.022 119.203 328.963 119.924 328.963 120.645C329.161 120.566 329.368 120.487 329.565 120.388L332.529 119.045V118.472C332.502 95.7995 314.127 77.4285 291.454 77.4067H291.494Z" fill="#1A2E35"/>
<path d="M66.9508 77.4065C63.4439 77.4058 59.9511 77.8542 56.5578 78.7407C34.6152 84.4748 21.4754 106.911 27.2094 128.854L30.8549 128.775C29.0947 122.616 28.9401 116.11 30.4046 109.874C35.1469 89.6918 55.3518 77.1749 75.5343 81.9166C95.7161 86.659 108.233 106.864 103.491 127.046L107.126 126.957C107.718 124.161 108.016 121.31 108.016 118.452C108.01 95.7781 89.6247 77.4014 66.9508 77.4065Z" fill="#1A2E35"/>
<path d="M102.682 45.8325C102.243 46.2039 101.931 46.7383 101.8 47.3425C101.489 48.7749 102.254 50.2182 103.509 50.5665L119.182 54.9593C120.571 55.3525 122.01 55.4616 123.435 55.2807L239.644 40.883C242.473 40.5237 245.109 39.0605 247.106 36.7423L262.351 18.982C262.858 18.3951 263.18 17.6324 263.265 16.8151C263.472 14.7939 262.205 12.9708 260.433 12.7425C232.606 9.05276 197.421 5.69789 175.204 8.41257C146.085 11.9657 116.77 33.8538 102.682 45.8325Z" fill="#23A6BF"/>
<mask id="mask1_3004_5194" style="mask-type:luminance" maskUnits="userSpaceOnUse" x="102" y="7" width="162" height="49">
<path d="M102.244 7.42374H263.801V55.365H102.244V7.42374Z" fill="white"/>
</mask>
<g mask="url(#mask1_3004_5194)">
<g opacity="0.800003">
<path d="M103.195 45.832C102.757 46.2034 102.444 46.7378 102.313 47.342C102.002 48.7744 102.768 50.2177 104.023 50.566L119.696 54.9588C121.085 55.352 122.524 55.4611 123.949 55.2802L237.557 47.4921C240.385 47.1336 244.756 41.9364 247.847 37.7168L262.865 18.9815C263.372 18.3946 263.694 17.6319 263.778 16.8147C263.986 14.7934 262.718 12.9703 260.947 12.742C233.119 9.05227 197.935 5.6974 175.718 8.41209C146.599 11.9652 117.283 33.8533 103.195 45.832Z" fill="white"/>
</g>
</g>
<mask id="mask2_3004_5194" style="mask-type:luminance" maskUnits="userSpaceOnUse" x="178" y="52" width="18" height="5">
<path d="M178.176 52.8967H195.762V56.9893H178.176V52.8967Z" fill="white"/>
</mask>
<g mask="url(#mask2_3004_5194)">
<g opacity="0.300003">
<path d="M179.123 56.9044C178.379 56.6363 177.993 55.8159 178.261 55.0711C178.591 54.15 179.446 53.5207 180.425 53.4809L194.255 52.8978C194.441 52.8895 194.628 52.9177 194.804 52.9806C195.554 53.2487 195.945 54.0743 195.677 54.8242C195.341 55.746 194.483 56.3739 193.503 56.415L179.673 56.9878C179.486 56.9962 179.299 56.9679 179.123 56.9044Z" fill="black"/>
</g>
</g>
<path d="M281.969 17.2805C280.746 18.3685 280.636 20.2415 281.724 21.4642L285.004 25.0307C285.38 25.4304 285.858 25.7209 286.387 25.8704L326.562 37.0133C327.262 37.2019 327.982 37.2981 328.706 37.3H336.688C336.273 37.0229 335.848 36.7663 335.404 36.529L296.65 16.1297L296.648 16.1291C295.67 15.6454 295.268 14.4606 295.751 13.4824L283.166 16.6339C282.722 16.7539 282.313 16.9752 281.969 17.2805Z" fill="#23A6BF"/>
<mask id="mask3_3004_5194" style="mask-type:luminance" maskUnits="userSpaceOnUse" x="6" y="63" width="26" height="13">
<path d="M6.74414 63.5151H31.787V75.9236H6.74414V63.5151Z" fill="white"/>
</mask>
<g mask="url(#mask3_3004_5194)">
<path d="M31.7865 65.0076L18.0784 63.5149L10.2031 66.7363C8.54681 67.4137 7.31006 68.8352 6.86937 70.5691C6.61086 71.5717 6.75583 72.6359 7.27414 73.5327L7.41269 73.77C8.29343 75.2858 10.0017 76.121 11.7394 75.8836L19.6422 74.797C20.4126 74.6867 21.1433 74.3845 21.7661 73.9182L30.8839 67.0032L31.7865 65.0076Z" fill="white"/>
</g>
<path d="M88.7422 44.2349L90.9251 44.8571C92.6218 45.3414 94.448 44.9488 95.7958 43.8102C108.499 33.0624 130.588 16.5748 154.424 8.88943C154.53 8.85479 154.619 8.78167 154.673 8.68481C154.794 8.47056 154.718 8.19986 154.503 8.07926L151.54 6.55835C117.153 18.4813 88.7422 44.2349 88.7422 44.2349Z" fill="#23A6BF"/>
<mask id="mask4_3004_5194" style="mask-type:luminance" maskUnits="userSpaceOnUse" x="88" y="6" width="67" height="40">
<path d="M88.7441 6.55797H154.732V45.0601H88.7441V6.55797Z" fill="white"/>
</mask>
<g mask="url(#mask4_3004_5194)">
<g opacity="0.800003">
<path d="M88.7441 44.2349L90.9271 44.8571C92.6237 45.3414 94.45 44.9488 95.7977 43.8102C108.501 33.0624 130.59 16.5748 154.426 8.88943C154.532 8.85479 154.621 8.78167 154.675 8.68481C154.796 8.47056 154.72 8.19986 154.505 8.07926L151.542 6.55835C117.155 18.4813 88.7441 44.2349 88.7441 44.2349Z" fill="white"/>
</g>
</g>
<mask id="mask5_3004_5194" style="mask-type:luminance" maskUnits="userSpaceOnUse" x="103" y="58" width="163" height="50">
<path d="M103.49 58.7467H265.281V107.887H103.49V58.7467Z" fill="white"/>
</mask>
<g mask="url(#mask5_3004_5194)">
<g opacity="0.199997">
<path d="M219.02 58.7466L103.49 67.0081L105.664 81.2563C106.331 85.6215 107.948 89.7866 110.404 93.4564L120.06 107.887L218.664 94.5565L265.281 58.7466H219.02Z" fill="white"/>
</g>
</g>
<path d="M313.576 140.583C301.362 152.797 281.56 152.797 269.346 140.583C257.132 128.37 257.132 108.567 269.346 96.3529C281.56 84.1394 301.362 84.1394 313.576 96.3529C325.79 108.567 325.79 128.37 313.576 140.583Z" fill="#1A2E35"/>
<mask id="mask6_3004_5194" style="mask-type:luminance" maskUnits="userSpaceOnUse" x="272" y="99" width="39" height="39">
<path d="M272.305 99.2939H310.653V137.643H272.305V99.2939Z" fill="white"/>
</mask>
<g mask="url(#mask6_3004_5194)">
<g opacity="0.399994">
<path d="M305.037 132.027C297.549 139.515 285.409 139.515 277.921 132.027C270.433 124.539 270.433 112.398 277.921 104.91C285.409 97.4222 297.549 97.4222 305.037 104.91C312.525 112.398 312.525 124.539 305.037 132.027Z" fill="white"/>
</g>
</g>
<mask id="mask7_3004_5194" style="mask-type:luminance" maskUnits="userSpaceOnUse" x="289" y="101" width="5" height="14">
<path d="M289.936 101.223H293.008V114.115H289.936V101.223Z" fill="white"/>
</mask>
<g mask="url(#mask7_3004_5194)">
<g opacity="0.300003">
<path d="M293.008 102.754V112.583C293.008 113.429 292.322 114.115 291.476 114.115H291.467C290.621 114.115 289.936 113.429 289.936 112.583V102.754C289.936 101.909 290.621 101.223 291.467 101.223H291.476C292.322 101.223 293.008 101.909 293.008 102.754Z" fill="white"/>
</g>
</g>
<mask id="mask8_3004_5194" style="mask-type:luminance" maskUnits="userSpaceOnUse" x="289" y="122" width="5" height="14">
<path d="M289.936 122.828H293.008V135.719H289.936V122.828Z" fill="white"/>
</mask>
<g mask="url(#mask8_3004_5194)">
<g opacity="0.300003">
<path d="M293.008 124.359V134.188C293.008 135.033 292.322 135.719 291.476 135.719H291.467C290.621 135.719 289.936 135.033 289.936 134.188V124.359C289.936 123.513 290.621 122.827 291.467 122.827H291.476C292.322 122.827 293.008 123.513 293.008 124.359Z" fill="white"/>
</g>
</g>
<mask id="mask9_3004_5194" style="mask-type:luminance" maskUnits="userSpaceOnUse" x="295" y="109" width="12" height="9">
<path d="M295.031 109.049H306.612V117.063H295.031V109.049Z" fill="white"/>
</mask>
<g mask="url(#mask9_3004_5194)">
<g opacity="0.300003">
<path d="M297.326 116.861C296.591 117.279 295.656 117.023 295.237 116.288C295.236 116.287 295.236 116.286 295.235 116.285C294.814 115.551 295.067 114.615 295.8 114.194L304.305 109.255C305.042 108.83 305.984 109.082 306.41 109.818C306.828 110.552 306.577 111.487 305.847 111.912L297.341 116.852C297.336 116.855 297.331 116.857 297.326 116.861Z" fill="white"/>
</g>
</g>
<mask id="mask10_3004_5194" style="mask-type:luminance" maskUnits="userSpaceOnUse" x="276" y="119" width="12" height="9">
<path d="M276.32 119.815H287.898V127.825H276.32V119.815Z" fill="white"/>
</mask>
<g mask="url(#mask10_3004_5194)">
<g opacity="0.300003">
<path d="M278.617 127.622C277.883 128.043 276.947 127.79 276.526 127.057C276.525 127.055 276.525 127.054 276.524 127.053C276.103 126.319 276.356 125.383 277.089 124.962L285.595 120.023L285.596 120.022C286.326 119.597 287.264 119.845 287.689 120.576C288.116 121.31 287.868 122.251 287.136 122.68L278.62 127.619C278.619 127.62 278.618 127.621 278.617 127.622Z" fill="white"/>
</g>
</g>
<mask id="mask11_3004_5194" style="mask-type:luminance" maskUnits="userSpaceOnUse" x="295" y="119" width="12" height="9">
<path d="M295.035 119.853H306.616V127.865H295.035V119.853Z" fill="white"/>
</mask>
<g mask="url(#mask11_3004_5194)">
<g opacity="0.300003">
<path d="M304.31 127.658L295.805 122.719C295.069 122.293 294.817 121.351 295.242 120.615C295.671 119.882 296.612 119.635 297.346 120.061L305.851 125.001C306.582 125.427 306.832 126.361 306.414 127.095C305.988 127.832 305.047 128.084 304.31 127.658Z" fill="white"/>
</g>
</g>
<mask id="mask12_3004_5194" style="mask-type:luminance" maskUnits="userSpaceOnUse" x="276" y="109" width="12" height="9">
<path d="M276.32 109.049H287.897V117.058H276.32V109.049Z" fill="white"/>
</mask>
<g mask="url(#mask12_3004_5194)">
<g opacity="0.300003">
<path d="M287.687 116.293C287.263 117.025 286.327 117.275 285.595 116.852L277.089 111.913C277.088 111.912 277.086 111.911 277.085 111.91C276.353 111.487 276.103 110.55 276.526 109.818C276.527 109.817 276.528 109.816 276.528 109.815C276.952 109.083 277.888 108.832 278.62 109.255L287.136 114.194L287.136 114.195C287.867 114.62 288.114 115.558 287.688 116.289C287.688 116.29 287.687 116.291 287.687 116.293Z" fill="white"/>
</g>
</g>
<path d="M288.885 118.462C288.885 117.043 290.035 115.893 291.453 115.893H291.463C292.887 115.893 294.042 117.048 294.042 118.471C294.042 119.895 292.887 121.05 291.463 121.05C290.039 121.05 288.885 119.895 288.885 118.471V118.462Z" fill="#1A2E35"/>
<path d="M89.0604 140.589C76.8469 152.802 57.0442 152.802 44.8301 140.589C32.6165 128.375 32.6165 108.573 44.8301 96.3585C57.0442 84.145 76.8469 84.145 89.0604 96.3585C101.274 108.573 101.274 128.375 89.0604 140.589Z" fill="#1A2E35"/>
<mask id="mask13_3004_5194" style="mask-type:luminance" maskUnits="userSpaceOnUse" x="47" y="99" width="40" height="39">
<path d="M47.7734 99.2993H86.1216V137.648H47.7734V99.2993Z" fill="white"/>
</mask>
<g mask="url(#mask13_3004_5194)">
<g opacity="0.399994">
<path d="M80.506 132.031C73.0182 139.519 60.8778 139.519 53.3893 132.031C45.9015 124.544 45.9015 112.403 53.3893 104.915C60.8778 97.4268 73.0182 97.4268 80.506 104.915C87.9938 112.403 87.9938 124.544 80.506 132.031Z" fill="white"/>
</g>
</g>
<mask id="mask14_3004_5194" style="mask-type:luminance" maskUnits="userSpaceOnUse" x="65" y="101" width="4" height="14">
<path d="M65.418 101.223H68.4906V114.115H65.418V101.223Z" fill="white"/>
</mask>
<g mask="url(#mask14_3004_5194)">
<g opacity="0.300003">
<path d="M68.486 102.754V112.583C68.486 113.429 67.8003 114.115 66.9549 114.115H66.9452C66.0991 114.115 65.4141 113.429 65.4141 112.583V102.754C65.4141 101.909 66.0991 101.223 66.9452 101.223H66.9549C67.8003 101.223 68.486 101.909 68.486 102.754Z" fill="white"/>
</g>
</g>
<mask id="mask15_3004_5194" style="mask-type:luminance" maskUnits="userSpaceOnUse" x="65" y="122" width="4" height="14">
<path d="M65.418 122.828H68.4906V135.719H65.418V122.828Z" fill="white"/>
</mask>
<g mask="url(#mask15_3004_5194)">
<g opacity="0.300003">
<path d="M68.486 124.359V134.188C68.486 135.033 67.8003 135.719 66.9549 135.719H66.9452C66.0991 135.719 65.4141 135.033 65.4141 134.188V124.359C65.4141 123.513 66.0991 122.827 66.9452 122.827H66.9549C67.8003 122.827 68.486 123.513 68.486 124.359Z" fill="white"/>
</g>
</g>
<mask id="mask16_3004_5194" style="mask-type:luminance" maskUnits="userSpaceOnUse" x="70" y="109" width="13" height="9">
<path d="M70.5039 109.049H82.0804V117.062H70.5039V109.049Z" fill="white"/>
</mask>
<g mask="url(#mask16_3004_5194)">
<g opacity="0.300003">
<path d="M72.7853 116.864C72.0541 117.278 71.1259 117.02 70.7121 116.289L70.7115 116.288C70.2868 115.557 70.5344 114.62 71.2657 114.195L79.7805 109.256C79.7818 109.254 79.7831 109.254 79.7844 109.253C80.5182 108.832 81.4541 109.085 81.8749 109.818C81.8755 109.82 81.8762 109.821 81.8775 109.822C82.2983 110.556 82.0449 111.492 81.3117 111.913L72.8065 116.852C72.7994 116.856 72.7924 116.86 72.7853 116.864Z" fill="white"/>
</g>
</g>
<mask id="mask17_3004_5194" style="mask-type:luminance" maskUnits="userSpaceOnUse" x="51" y="119" width="13" height="9">
<path d="M51.7988 119.814H63.3837V127.826H51.7988V119.814Z" fill="white"/>
</mask>
<g mask="url(#mask17_3004_5194)">
<g opacity="0.300003">
<path d="M52.0047 127.057C52.0041 127.056 52.0034 127.054 52.0022 127.053C51.5814 126.32 51.8347 125.384 52.5679 124.962L61.0731 120.023C61.807 119.597 62.748 119.844 63.1771 120.577C63.6024 121.313 63.3503 122.255 62.6139 122.681L54.1087 127.62C53.3723 128.045 52.4307 127.793 52.0047 127.057Z" fill="white"/>
</g>
</g>
<mask id="mask18_3004_5194" style="mask-type:luminance" maskUnits="userSpaceOnUse" x="70" y="119" width="13" height="9">
<path d="M70.5078 119.854H82.085V127.865H70.5078V119.854Z" fill="white"/>
</mask>
<g mask="url(#mask18_3004_5194)">
<g opacity="0.300003">
<path d="M81.8774 127.1C81.454 127.832 80.5174 128.083 79.7855 127.659L71.2701 122.72C70.5375 122.291 70.2899 121.35 70.7171 120.616V120.615C71.1431 119.884 72.0802 119.637 72.8109 120.062L81.3167 125.002C81.318 125.002 81.3193 125.003 81.3206 125.004C82.0525 125.428 82.3026 126.364 81.8799 127.096C81.8786 127.097 81.878 127.099 81.8774 127.1Z" fill="white"/>
</g>
</g>
<mask id="mask19_3004_5194" style="mask-type:luminance" maskUnits="userSpaceOnUse" x="51" y="109" width="13" height="9">
<path d="M51.7988 109.049H63.3831V117.063H51.7988V109.049Z" fill="white"/>
</mask>
<g mask="url(#mask19_3004_5194)">
<g opacity="0.300003">
<path d="M63.1682 116.304C62.741 117.034 61.8025 117.279 61.0732 116.851L52.568 111.912C52.5667 111.911 52.5654 111.911 52.5641 111.91C51.8316 111.487 51.5814 110.55 52.0048 109.818C52.4307 109.082 53.3724 108.83 54.1088 109.255L62.614 114.194C62.6153 114.195 62.6166 114.196 62.6178 114.196C63.3504 114.62 63.6006 115.556 63.1772 116.288C63.174 116.294 63.1714 116.299 63.1682 116.304Z" fill="white"/>
</g>
</g>
<path d="M66.9452 115.893C68.3693 115.893 69.5233 117.048 69.5233 118.472C69.5233 119.895 68.3693 121.05 66.9452 121.05C65.5212 121.05 64.3672 119.895 64.3672 118.471C64.3672 117.048 65.5212 115.893 66.9452 115.893Z" fill="#1A2E35"/>
<mask id="mask20_3004_5194" style="mask-type:luminance" maskUnits="userSpaceOnUse" x="307" y="39" width="35" height="21">
<path d="M307.578 39.1186H341.113V59.5576H307.578V39.1186Z" fill="white"/>
</mask>
<g mask="url(#mask20_3004_5194)">
<g opacity="0.300003">
<path d="M339.724 59.4683C340.766 59.1438 341.348 58.0366 341.023 56.9948C340.661 50.4108 339.261 44.5478 335.225 40.5175C334.954 39.631 334.104 39.0518 333.18 39.1242L309.343 41.3771C308.928 41.4213 308.538 41.5958 308.229 41.8761C307.419 42.6074 307.357 43.857 308.088 44.6665L314.914 52.026C315.152 52.2801 315.451 52.468 315.784 52.5694L338.604 59.4844C338.971 59.587 339.36 59.5819 339.724 59.4683Z" fill="black"/>
</g>
</g>
<path d="M101.8 47.3313C101.489 48.7637 102.254 50.207 103.509 50.5553L119.182 54.948C120.571 55.3413 121.733 55.6107 123.538 55.6921L128.473 55.365L123.819 30.2227C113.07 37.2821 112.334 37.6041 102.682 45.8213C102.243 46.1927 101.931 46.727 101.8 47.3313Z" fill="#1A2E35"/>
<path d="M203.897 7.59996L194.051 50.5339L206.93 49.6077L212.812 8.00152C209.797 7.82961 206.826 7.69554 203.897 7.59996Z" fill="#1A2E35"/>
<path d="M244.764 41.5781L262.854 18.9818C263.374 18.3898 263.703 17.6149 263.786 16.7835C263.99 14.7623 262.718 12.9424 260.946 12.7198C257.24 12.2163 253.296 11.732 249.352 11.2586" fill="#1A2E35"/>
<path d="M116.051 51.6961C112.92 51.7333 110.351 49.2246 110.315 46.0929C110.284 43.4302 112.108 41.1036 114.702 40.4974L122.258 38.7263L124.18 51.3882L116.202 51.6923C116.152 51.6942 116.102 51.6955 116.051 51.6961Z" fill="#23A6BF"/>
<mask id="mask21_3004_5194" style="mask-type:luminance" maskUnits="userSpaceOnUse" x="120" y="38" width="5" height="14">
<path d="M120.1 38.7265H124.179V51.4744H120.1V38.7265Z" fill="white"/>
</mask>
<g mask="url(#mask21_3004_5194)">
<g opacity="0.300003">
<path d="M121.968 51.4744L124.179 51.3884L122.257 38.7265L120.1 39.2371L121.968 51.4744Z" fill="black"/>
</g>
</g>
<mask id="mask22_3004_5194" style="mask-type:luminance" maskUnits="userSpaceOnUse" x="196" y="49" width="11" height="57">
<path d="M196.67 49.4503H206.865V105.763H196.67V49.4503Z" fill="white"/>
</mask>
<g mask="url(#mask22_3004_5194)">
<g opacity="0.600006">
<path d="M206.665 49.6111C206.757 54.061 206.709 58.7681 206.229 61.1723C205.16 66.5163 196.83 105.603 196.83 105.603" stroke="black" stroke-width="0.320733" stroke-miterlimit="10" stroke-linecap="round" stroke-linejoin="round"/>
</g>
</g>
<mask id="mask23_3004_5194" style="mask-type:luminance" maskUnits="userSpaceOnUse" x="101" y="48" width="22" height="64">
<path d="M101.572 48.1146H122.587V111.579H101.572V48.1146Z" fill="white"/>
</mask>
<g mask="url(#mask23_3004_5194)">
<g opacity="0.600006">
<path d="M101.738 48.2747C101.738 48.2747 104.228 82.071 108.02 88.9071C111.717 95.5751 122.433 111.419 122.433 111.419" stroke="black" stroke-width="0.320733" stroke-miterlimit="10" stroke-linecap="round" stroke-linejoin="round"/>
</g>
</g>
<mask id="mask24_3004_5194" style="mask-type:luminance" maskUnits="userSpaceOnUse" x="17" y="44" width="77" height="20">
<path d="M17.9141 44.8989H93.1844V63.6753H17.9141V44.8989Z" fill="white"/>
</mask>
<g mask="url(#mask24_3004_5194)">
<g opacity="0.600006">
<path d="M93.0238 45.0597C93.0238 45.0597 66.3882 51.6398 58.5501 52.8958C52.1149 53.9273 25.9501 60.2932 18.0742 63.5146" stroke="black" stroke-width="0.320733" stroke-miterlimit="10" stroke-linecap="round" stroke-linejoin="round"/>
</g>
</g>
<mask id="mask25_3004_5194" style="mask-type:luminance" maskUnits="userSpaceOnUse" x="280" y="13" width="57" height="25">
<path d="M280.971 13.483H336.684V37.3H280.971V13.483Z" fill="white"/>
</mask>
<g mask="url(#mask25_3004_5194)">
<g opacity="0.800003">
<path d="M281.965 17.2813C280.742 18.3692 280.632 20.2423 281.72 21.4649L285 25.0315C285.376 25.4311 285.854 25.7217 286.383 25.8711L326.558 37.014C327.258 37.2026 327.978 37.2989 328.702 37.3008H336.684C336.269 37.0237 335.844 36.7671 335.4 36.5297L296.646 16.1305L296.644 16.1298C295.666 15.6462 295.265 14.4614 295.748 13.4831L283.162 16.6347C282.718 16.7546 282.309 16.9759 281.965 17.2813Z" fill="white"/>
</g>
</g>
<path d="M148.91 34.2895C148.91 34.2895 153.711 51.171 156.042 51.7701C160.265 52.8548 174.543 50.4044 174.259 49.9355L173.091 43.9878C173.091 43.9878 158.514 42.939 158.212 43.0571L153.586 32.4709L148.91 34.2895Z" fill="#FE7259"/>
<path d="M153.617 35.4609C153.617 35.4609 155.072 34.1061 155.113 32.4627C155.152 30.8186 155.622 29.5171 155.567 28.2931C155.512 27.0692 154.489 28.3675 154.083 29.1687C153.678 29.9693 153.211 30.8731 152.658 30.4716C152.106 30.07 149.702 24.7112 148.872 24.2416C148.043 23.7721 148.161 24.7606 148.161 24.7606C148.161 24.7606 147.542 23.4744 146.966 23.5809C146.816 23.6085 146.513 23.9158 146.703 24.5463C147.131 25.964 148.183 28.8929 148.183 28.8929C148.126 28.7236 146.57 25.2006 146.268 24.7035C145.873 24.0537 145.356 23.9485 144.986 24.1897C144.461 24.5329 146.241 28.966 146.185 29.2059C146.185 29.2059 145.246 26.6189 144.446 26.4964C143.645 26.3732 144.147 28.034 144.869 29.4138C145.53 30.6794 146.496 33.3338 147.293 34.5551C148.275 36.0594 149.273 36.849 150.938 36.5937C152.603 36.3384 153.617 35.4609 153.617 35.4609Z" fill="#FE7259"/>
<mask id="mask26_3004_5194" style="mask-type:luminance" maskUnits="userSpaceOnUse" x="148" y="24" width="2" height="5">
<path d="M148.195 24.8335H149.622V28.1826H148.195V24.8335Z" fill="white"/>
</mask>
<g mask="url(#mask26_3004_5194)">
<g opacity="0.300003">
<path d="M148.275 24.9141C148.746 25.9571 149.168 27.0213 149.542 28.1028" stroke="black" stroke-width="0.160367" stroke-miterlimit="10" stroke-linecap="round" stroke-linejoin="round"/>
</g>
</g>
<mask id="mask27_3004_5194" style="mask-type:luminance" maskUnits="userSpaceOnUse" x="146" y="28" width="5" height="3">
<path d="M146.439 28.4572H150.632V30.302H146.439V28.4572Z" fill="white"/>
</mask>
<g mask="url(#mask27_3004_5194)">
<g opacity="0.300003">
<path d="M146.52 30.2222C147.66 29.2824 149.082 28.6884 150.552 28.5377" stroke="black" stroke-width="0.160367" stroke-miterlimit="10" stroke-linecap="round" stroke-linejoin="round"/>
</g>
</g>
<mask id="mask28_3004_5194" style="mask-type:luminance" maskUnits="userSpaceOnUse" x="151" y="31" width="2" height="4">
<path d="M151.025 31.0325H152.381V34.3694H151.025V31.0325Z" fill="white"/>
</mask>
<g mask="url(#mask28_3004_5194)">
<g opacity="0.300003">
<path d="M152.302 31.1125C151.796 31.439 151.409 31.9458 151.227 32.5199C151.046 33.094 151.071 33.731 151.298 34.2891" stroke="black" stroke-width="0.160367" stroke-miterlimit="10" stroke-linecap="round" stroke-linejoin="round"/>
</g>
</g>
<path d="M186.545 28.6819C186.545 28.6819 191.886 24.1698 191.656 22.6624C191.425 21.1543 190.568 21.6193 190.568 21.6193C190.568 21.6193 192.416 17.979 190.595 17.3536C188.775 16.7288 188.648 17.3408 188.648 17.3408C188.648 17.3408 189.369 14.3701 187.925 13.4772C186.826 12.7889 186.36 14.1565 186.36 14.1565C186.36 14.1565 184.262 10.9024 181.752 10.9498C180.511 11.0448 179.901 11.8447 180.076 12.8005C180.083 12.8422 180.092 12.8832 180.103 12.9236C180.103 12.9236 175.036 10.7163 172.683 12.1025C170.329 13.4881 173.399 15.0078 173.399 15.0078C173.399 15.0078 168.463 14.4927 167.495 16.4786C166.727 18.056 168.924 19.1189 168.924 19.1189C168.924 19.1189 168.144 19.3832 167.479 19.9849C166.21 21.1312 166.985 23.3051 168.694 23.3667C168.707 23.3673 168.72 23.368 168.734 23.368C168.996 23.3757 169.467 23.4328 169.658 23.2519C169.658 23.2519 168.81 25.0396 170.637 25.6138C172.464 26.1879 173.332 24.0704 173.332 24.0704L186.545 28.6819Z" fill="#1A2E35"/>
<path d="M184.864 40.3002C184.864 40.3002 184.566 37.726 186.397 31.4685C186.397 31.4614 186.068 31.3145 186.068 31.3081C186.32 30.4325 186.589 29.6243 186.841 28.9231C186.847 28.9026 186.846 28.8962 186.846 28.8962L178.267 34.1684C178.464 36.1711 177.735 40.0391 177.303 41.6716L179.525 45.4338L184.864 40.3002Z" fill="#FE7259"/>
<mask id="mask29_3004_5194" style="mask-type:luminance" maskUnits="userSpaceOnUse" x="177" y="35" width="7" height="5">
<path d="M177.799 35.8844H183.043V39.3701H177.799V35.8844Z" fill="white"/>
</mask>
<g mask="url(#mask29_3004_5194)">
<g opacity="0.199997">
<path d="M178.11 36.9829L183.043 35.8841C182.591 37.4159 181.23 39.2299 177.799 39.3691C177.799 39.3691 178.145 37.6545 178.11 36.9829Z" fill="black"/>
</g>
</g>
<path d="M172.381 19.3526C171.368 21.3316 170.999 25.689 174.157 24.7884C177.315 23.8884 174.122 15.9509 172.381 19.3526Z" fill="#1A2E35"/>
<path d="M186.92 24.7351C186.329 30.1645 186.105 33.2377 183.219 35.8774C178.878 39.8474 172.418 37.1051 171.373 31.5924C170.432 26.6306 171.557 18.586 176.997 16.7226C182.357 14.886 187.512 19.3064 186.92 24.7351Z" fill="#FE7259"/>
<path d="M179.052 25.9387C179.026 26.4962 178.709 26.9311 178.345 26.9099C177.98 26.8894 177.706 26.4205 177.732 25.8637C177.759 25.3062 178.075 24.8713 178.44 24.8925C178.804 24.913 179.079 25.3813 179.052 25.9387Z" fill="#1A2E35"/>
<path d="M173.586 25.7896C173.559 26.347 173.242 26.7813 172.878 26.7608C172.514 26.7402 172.239 26.2713 172.265 25.7145C172.292 25.1571 172.609 24.7222 172.973 24.7434C173.337 24.7639 173.612 25.2322 173.586 25.7896Z" fill="#1A2E35"/>
<path d="M175.373 25.565C175.373 25.565 173.478 28.2501 172.859 29.3509C173.602 30.0879 174.953 29.8281 174.953 29.8281L175.373 25.565Z" fill="#FF4F4D"/>
<path d="M180.4 22.9487C180.312 22.9718 180.214 22.9481 180.145 22.8775C179.326 22.043 178.38 22.2149 178.37 22.2168C178.229 22.2438 178.091 22.1514 178.062 22.0103C178.033 21.8698 178.125 21.7332 178.266 21.7056C178.316 21.6953 179.502 21.4798 180.517 22.5157C180.619 22.619 180.618 22.7839 180.515 22.8839C180.482 22.916 180.442 22.9378 180.4 22.9487Z" fill="#1A2E35"/>
<path d="M171.263 23.2731C171.216 23.2583 171.172 23.2295 171.139 23.1878C171.048 23.0749 171.064 22.91 171.175 22.8196C172.292 21.9093 173.433 22.2788 173.487 22.2884C173.623 22.334 173.7 22.4815 173.656 22.6188C173.612 22.7561 173.467 22.8305 173.331 22.7875C173.284 22.7702 172.401 22.4969 171.505 23.2275C171.435 23.2846 171.344 23.2987 171.263 23.2731Z" fill="#1A2E35"/>
<path d="M176.544 33.4679C176.527 33.4741 176.592 33.4561 176.544 33.4679V33.4679Z" fill="#1A2E35"/>
<path d="M175.7 31.3604C176.576 31.0839 178.19 30.4989 178.973 29.6772C178.973 29.6772 179.113 29.9171 179.195 30.2795C179.268 30.5919 179.308 30.989 179.204 31.4008C179.011 32.1526 178.352 32.9653 176.582 33.4567C176.558 33.4644 176.553 33.4663 176.549 33.4676C176.542 33.4695 176.544 33.4689 176.531 33.4721C176.531 33.4721 175.576 33.7158 175.1 31.5374C175.1 31.5374 175.334 31.4797 175.7 31.3604Z" fill="#1A2E35"/>
<path d="M175.693 31.3606L176.031 31.9495C177.696 31.4825 178.806 30.9302 179.188 30.2797C179.107 29.9173 178.966 29.678 178.966 29.678C178.184 30.4991 176.569 31.0841 175.693 31.3606Z" fill="white"/>
<path d="M176.574 33.4565C178.344 32.9652 179.003 32.1524 179.196 31.4006C178.599 31.5912 177.901 31.8875 177.339 32.3359C176.908 32.6765 176.689 33.0787 176.574 33.4565Z" fill="#FF4F4D"/>
<path d="M185.288 28.9402C184.818 28.6842 184.323 28.4039 184.067 27.9331C183.829 27.495 183.842 26.9683 183.886 26.4718C183.933 25.9574 184.006 25.4448 184.107 24.9374C183.623 25.1812 183.038 24.7937 182.773 24.321C182.376 23.6147 182.402 22.7558 182.459 21.9476C181.842 22.0797 181.144 21.8962 180.738 21.4126C180.332 20.9289 180.294 20.145 180.716 19.6768C178.712 19.9455 176.656 19.8173 174.701 19.3009C174.836 19.5504 174.679 19.8551 174.506 20.0803C173.806 20.9918 172.759 21.6313 171.627 21.8379C171.461 21.868 171.255 21.8732 171.163 21.732C171.114 21.6563 171.114 21.5601 171.119 21.4703C171.185 20.3683 171.82 19.3567 172.653 18.6325C173.486 17.9076 174.508 17.4355 175.537 17.0359C177.245 16.3719 179.033 15.8761 180.862 15.7523C182.69 15.6291 184.566 15.8902 186.22 16.6792C186.582 16.8518 186.941 17.0564 187.195 17.3675C187.434 17.6626 187.561 18.0321 187.672 18.3958C188.348 20.6095 188.605 22.9502 188.427 25.2582" fill="#1A2E35"/>
<path d="M188.858 29.3748C188.356 30.7559 187.261 31.7707 186.156 32.2563C184.493 32.9869 183.39 31.5545 183.625 29.8463C183.837 28.3093 184.957 26.0764 186.735 26.0674C188.487 26.0584 189.431 27.7955 188.858 29.3748Z" fill="#FE7259"/>
<mask id="mask30_3004_5194" style="mask-type:luminance" maskUnits="userSpaceOnUse" x="184" y="27" width="4" height="3">
<path d="M184.959 27.2301H187.842V29.4849H184.959V27.2301Z" fill="white"/>
</mask>
<g mask="url(#mask30_3004_5194)">
<g opacity="0.199997">
<path d="M187.679 27.8111C187.475 27.4756 187.033 27.3351 186.648 27.4108C186.262 27.4865 185.933 27.7437 185.686 28.0484C185.389 28.4147 185.19 28.8592 185.115 29.325" stroke="black" stroke-width="0.320733" stroke-miterlimit="10" stroke-linecap="round" stroke-linejoin="round"/>
</g>
</g>
<path d="M176.885 49.1594C176.885 49.1594 160.934 53.8209 155.141 54.023C149.348 54.2244 136.525 51.5238 136.525 51.5238L137.25 45.6377L156.07 46.5993L176.532 39.7638L176.885 49.1594Z" fill="#FE7259"/>
<path d="M171.195 52.7551L174.332 39.7892L182.297 38.4004C182.646 38.3491 189.117 37.8173 191.057 44.9158L191.49 50.5568L171.195 52.7551Z" fill="#1A2E35"/>
<path d="M178.694 51.4621C178.253 51.4557 165.836 53.7258 165.836 53.7258L163.281 43.6292C163.281 43.6292 169.053 41.2147 174.329 39.7887C180.224 38.1947 185.754 37.7001 187.028 40.452C189.441 45.6664 178.694 51.4621 178.694 51.4621Z" fill="#1A2E35"/>
<mask id="mask31_3004_5194" style="mask-type:luminance" maskUnits="userSpaceOnUse" x="152" y="43" width="14" height="4">
<path d="M152.977 43.1933H165.433V46.6931H152.977V43.1933Z" fill="white"/>
</mask>
<g mask="url(#mask31_3004_5194)">
<g opacity="0.300003">
<path d="M152.977 46.5346C153.278 46.55 156.071 46.6924 156.071 46.6924L164.121 43.9341C164.121 43.9341 165.789 43.2163 165.365 43.3619C164.94 43.5069 161.606 43.1611 161.384 43.1951C161.162 43.2297 152.977 46.5346 152.977 46.5346Z" fill="black"/>
</g>
</g>
<path d="M131.07 42.9575C130.709 43.1756 126.443 47.5844 126.443 47.5844L127.275 53.0491L132.639 47.5132L131.07 42.9575Z" fill="#1A2E35"/>
<path d="M137.499 54.3558C136.556 54.8209 135.414 54.4341 134.949 53.4911L126.439 36.2492C125.974 35.3062 126.361 34.1644 127.304 33.6993C128.247 33.2336 129.388 33.6211 129.854 34.564L138.364 51.806C138.829 52.749 138.442 53.8908 137.499 54.3558Z" fill="#1A2E35"/>
<path d="M143.631 46.1084L136.627 45.1674L134.601 42.7176C134.601 42.7176 131.042 42.3982 130.278 43.0326C129.514 43.6663 128.745 45.6882 128.745 45.6882C128.745 45.6882 127.818 47.3452 129.407 48.215C129.407 48.215 128.402 49.6897 130.194 50.7308C130.194 50.7308 128.873 51.4768 130.769 52.2562C132.665 53.0362 134.166 52.5827 135.327 52.1664C136.488 51.7495 138.542 51.9265 138.542 51.9265L144.912 53.0491L143.631 46.1084Z" fill="#FE7259"/>
</svg>
