<svg width="56" height="56" viewBox="0 0 56 56" fill="none" xmlns="http://www.w3.org/2000/svg">
<circle cx="28" cy="28" r="28" fill="#F4F7FE"/>
<g clip-path="url(#clip0_2046_3253)">
<path d="M20.2842 24.3137H20.5579C21.6115 24.3137 22.4736 25.1758 22.4736 26.2295V35.8083C22.4736 36.862 21.6115 37.724 20.5579 37.724H20.2842C19.2305 37.724 18.3684 36.862 18.3684 35.8083V26.2295C18.3684 25.1758 19.2305 24.3137 20.2842 24.3137ZM27.9472 18.5664C29.0009 18.5664 29.863 19.4285 29.863 20.4822V35.8083C29.863 36.862 29.0009 37.724 27.9472 37.724C26.8936 37.724 26.0315 36.862 26.0315 35.8083V20.4822C26.0315 19.4285 26.8936 18.5664 27.9472 18.5664ZM35.6103 29.5136C36.664 29.5136 37.526 30.3757 37.526 31.4294V35.8083C37.526 36.862 36.664 37.724 35.6103 37.724C34.5566 37.724 33.6945 36.862 33.6945 35.8083V31.4294C33.6945 30.3757 34.5566 29.5136 35.6103 29.5136Z" fill="#23A6BF"/>
</g>
<defs>
<clipPath id="clip0_2046_3253">
<rect width="32.8417" height="32.8417" fill="white" transform="translate(11.5264 11.7246)"/>
</clipPath>
</defs>
</svg>
