<svg width="248" height="186" viewBox="0 0 248 186" fill="none" xmlns="http://www.w3.org/2000/svg">
<g clip-path="url(#clip0_219_15839)">
<path d="M200.209 57.5015L197.877 50.0146C195.775 43.2853 193.291 36.6848 190.448 30.2581C187.597 23.8243 184.379 17.5564 180.809 11.4828C180.772 11.4251 180.737 11.3604 180.694 11.3027C178.246 7.24917 174.085 9.14045 169.391 8.51318H54.6094C49.9155 9.14045 45.7547 7.24917 43.3073 11.3027C43.2639 11.3604 43.2277 11.4251 43.1922 11.4828C39.6211 17.5556 36.4034 23.8243 33.553 30.2581C30.7097 36.6848 28.226 43.2845 26.1239 50.0146L23.7916 57.5015L112.328 57.0006L200.209 57.5015Z" fill="#C6C8D0"/>
<path d="M31.3665 123.646H19.4604C14.6783 123.646 10.8021 127.53 10.8021 132.321V170.276C10.8021 175.067 14.6783 185.999 19.4604 185.999H31.3657C36.1478 185.999 40.024 175.066 40.024 170.276V132.321C40.0248 127.531 36.1478 123.646 31.3665 123.646Z" fill="#BBBDC7"/>
<path d="M32.5965 60.103H16.0526C14.6586 60.103 13.5287 58.971 13.5287 57.5742H32.5965V60.103Z" fill="#DDDEE3"/>
<path d="M191.403 60.0342H207.947C209.341 60.0342 210.471 58.9021 210.471 57.5054H191.403V60.0342Z" fill="#DDDEE3"/>
<path d="M158.79 89.1508C145.9 89.1508 135.415 78.6453 135.415 65.731C135.415 52.8168 145.9 42.3113 158.79 42.3113C171.679 42.3113 182.164 52.8168 182.164 65.731C182.164 78.6453 171.679 89.1508 158.79 89.1508ZM158.79 44.9499C147.353 44.9499 138.049 54.272 138.049 65.731C138.049 77.1901 147.353 86.5122 158.79 86.5122C170.226 86.5122 179.53 77.1901 179.53 65.731C179.53 54.272 170.226 44.9499 158.79 44.9499Z" fill="#BBBDC7"/>
<path d="M192.634 123.646H204.539C209.321 123.646 213.197 127.53 213.197 132.321V170.276C213.197 175.067 209.321 185.999 204.539 185.999H192.634C187.851 185.999 183.975 175.066 183.975 170.276V132.321C183.975 127.531 187.851 123.646 192.634 123.646Z" fill="#BBBDC7"/>
<path d="M217.55 37.4724H207.667C204.105 37.4724 201.217 40.3654 201.217 43.9347V57.5299C201.217 58.8389 202.433 59.8075 203.705 59.5128L214.727 56.9595C219.987 55.7405 223.771 51.1277 223.945 45.7209L223.995 44.1432C224.114 40.4942 221.194 37.4724 217.55 37.4724Z" fill="#DDDEE3"/>
<path d="M211.854 74.5781L200.206 58.2811L116.343 56.9199V56.8835L114.961 56.8978L114.088 56.8835V56.9065L23.6631 57.8347L12.1458 74.5781C9.8939 77.9625 8.69226 81.9386 8.69226 86.0064V149.901H114.087H116.343H215.307V86.0064C215.307 81.9386 214.105 77.9625 211.854 74.5781Z" fill="#D2D3DA"/>
<path d="M164.691 70.027L199.013 64.4938C204.937 63.5387 210.33 68.0639 210.432 74.0742L210.678 88.5693H179.926C177.261 88.5693 174.795 87.1591 173.439 84.861L164.691 70.027Z" fill="#E8E9EC"/>
<path d="M195.892 149.898H28.1077L34.5669 140.609L36.8488 139.223L36.4033 137.971L39.1558 134.013L41.5402 132.475L40.9867 131.374L43.7393 127.416L46.1165 125.892L45.5764 124.778L50.3042 120.82L52.135 118.181L54.2024 112.369L65.5013 96.1201C67.1934 93.679 69.9783 92.2278 72.9414 92.2278H151.059C154.022 92.2278 156.807 93.679 158.499 96.1201L169.798 112.369L171.866 118.181L173.697 120.82L178.424 124.778L177.884 125.892L180.261 127.416L183.014 131.374L182.511 132.547L184.845 134.014L187.597 137.972L187.023 139.037L189.435 140.61L195.892 149.898Z" fill="#BBBDC7"/>
<path d="M6.44978 37.541H16.3334C19.8949 37.541 22.7831 40.434 22.7831 44.0033V57.1071C22.7831 58.6674 21.3339 59.8224 19.8161 59.4708L9.27254 57.0273C4.0118 55.8091 0.228675 51.1963 0.0544207 45.7895L0.00395795 44.2118C-0.114314 40.5628 2.80622 37.541 6.44978 37.541Z" fill="#DDDEE3"/>
<path d="M169.39 3.89555L152.451 1.62349C144.259 0.526964 136.002 -0.0141912 127.737 2.8936e-05L113.215 0.0197791L96.2631 2.8936e-05C87.9991 -0.0141912 79.7413 0.526964 71.549 1.6227L54.6093 3.89555C49.9155 4.52282 45.7547 7.24992 43.3073 11.3034H112H114.633H180.692C178.245 7.24913 174.084 4.52282 169.39 3.89555Z" fill="#DDDEE3"/>
<path d="M60.0766 70.027L25.7549 64.4938C19.831 63.5387 14.4378 68.0639 14.3361 74.0742L14.0901 88.5693H44.8424C47.5066 88.5693 49.973 87.1591 51.3284 84.861L60.0766 70.027Z" fill="#F3F4F6"/>
<path d="M184.844 134.012H39.1567L40.9876 131.373H183.013L184.844 134.012Z" fill="#D2D3DA"/>
<path d="M189.433 140.609H34.5677L36.4041 137.97H187.596L189.433 140.609Z" fill="#D2D3DA"/>
<path d="M214.143 142.907L169.773 146.435C165.362 146.786 160.937 146.961 156.512 146.961H110.915H108.427H67.4876C63.0618 146.961 58.6385 146.786 54.2261 146.435L9.85602 142.907C8.324 142.785 7.01355 143.998 7.01355 145.537V151.913C7.01355 153.371 8.19311 154.552 9.64707 154.552H108.426H110.915H214.351C215.805 154.552 216.984 153.37 216.984 151.913V145.537C216.986 143.998 215.675 142.785 214.143 142.907Z" fill="#C6C8D0"/>
<path d="M201.218 57.8861L200.209 57.5022L153.675 54.1692C149.348 53.8587 145 53.7007 140.659 53.7007H116.891H114.009H83.3407C79.0001 53.7007 74.6517 53.8595 70.3253 54.1692L23.7916 57.5014L22.7831 57.8854L17.5153 66.9365L68.4897 76.7697H114.01H116.891H155.511L207.144 66.9365L201.218 57.8861Z" fill="#DDDEE3"/>
<path d="M110.513 89.2535C114.385 89.2535 117.524 86.1087 117.524 82.2295C117.524 78.3503 114.385 75.2056 110.513 75.2056C106.642 75.2056 103.503 78.3503 103.503 82.2295C103.503 86.1087 106.642 89.2535 110.513 89.2535Z" fill="#DDDEE3"/>
<path d="M110.513 90.2434C106.103 90.2434 102.515 86.648 102.515 82.2303C102.515 77.8118 106.103 74.2173 110.513 74.2173C114.923 74.2173 118.511 77.8126 118.511 82.2303C118.511 86.648 114.923 90.2434 110.513 90.2434ZM110.513 76.1955C107.192 76.1955 104.49 78.9028 104.49 82.2295C104.49 85.5563 107.192 88.2636 110.513 88.2636C113.834 88.2636 116.536 85.5563 116.536 82.2295C116.536 78.9028 113.834 76.1955 110.513 76.1955Z" fill="#BBBDC7"/>
<path d="M109.892 87.7507L103.669 79.1776L105.267 78.0139L109.578 83.954L111.44 80.2236L116.36 85.1524L114.963 86.5523L111.981 83.5645L109.892 87.7507Z" fill="#BBBDC7"/>
<path d="M179.201 125.891H44.7998L45.5765 124.776L48.329 120.817L50.1591 118.179L54.2016 112.367H169.798L173.841 118.179L175.672 120.817L178.424 124.776L179.201 125.891Z" fill="#C6C8D0"/>
<path d="M180.261 127.415H43.7394L45.5765 124.776H178.424L180.261 127.415Z" fill="#D2D3DA"/>
<path d="M84.7963 112.252H140.103V127.415H84.7963V112.252Z" fill="#DDDEE3"/>
</g>
<g clip-path="url(#clip1_219_15839)">
<path d="M173.767 25.1147C145.146 25.1147 122 48.2111 122 76.7667C122 105.322 145.146 128.419 173.767 128.419C183.985 128.419 193.44 125.427 201.457 120.348L232.391 151.214C235.962 154.775 241.748 154.775 245.319 151.214C248.896 147.645 248.893 141.861 245.313 138.296L214.874 108.006C221.512 99.3182 225.533 88.5515 225.533 76.7667C225.533 48.2111 202.387 25.1147 173.767 25.1147ZM173.767 37.2674C195.689 37.2674 213.352 54.8936 213.352 76.7667C213.352 98.6409 195.688 116.267 173.767 116.267C151.844 116.267 134.179 98.6409 134.179 76.7667C134.18 54.8936 151.844 37.2674 173.767 37.2674Z" fill="#A7A7A7"/>
<path d="M173.767 37.2674C195.689 37.2674 213.352 54.8936 213.352 76.7667C213.352 98.6409 195.688 116.267 173.767 116.267C151.844 116.267 134.179 98.6409 134.179 76.7667C134.18 54.8936 151.844 37.2674 173.767 37.2674Z" fill="#D3D1D1"/>
</g>
<defs>
<clipPath id="clip0_219_15839">
<rect width="224" height="186" fill="white"/>
</clipPath>
<clipPath id="clip1_219_15839">
<rect width="126" height="129" fill="white" transform="translate(122 25)"/>
</clipPath>
</defs>
</svg>
