<svg width="32" height="33" viewBox="0 0 32 33" fill="none" xmlns="http://www.w3.org/2000/svg">
<rect width="32" height="33" fill="#E5E5E5"/>
<g id="Home" clip-path="url(#clip0_732_164)">
<rect width="1440" height="5806" transform="translate(-756 -2611)" fill="white"/>
<g id="How it works - car owners">
<g id="Frame 34120">
<g id="how it works content">
<g id="how it works list">
<g id="how it works 1">
<g id="files-duotone 1">
<path id="Vector" opacity="0.2" d="M26 9.5V23.5C26 23.7652 25.8946 24.0196 25.7071 24.2071C25.5196 24.3946 25.2652 24.5 25 24.5H22V13.5L17 8.5H10V5.5C10 5.23478 10.1054 4.98043 10.2929 4.79289C10.4804 4.60536 10.7348 4.5 11 4.5H21L26 9.5Z" fill="#08B5D6"/>
<path id="Vector_2" d="M26.7075 8.7925L21.7075 3.7925C21.6146 3.69967 21.5042 3.62605 21.3829 3.57586C21.2615 3.52568 21.1314 3.4999 21 3.5H11C10.4696 3.5 9.96086 3.71071 9.58579 4.08579C9.21071 4.46086 9 4.96957 9 5.5V7.5H7C6.46957 7.5 5.96086 7.71071 5.58579 8.08579C5.21071 8.46086 5 8.96957 5 9.5V27.5C5 28.0304 5.21071 28.5391 5.58579 28.9142C5.96086 29.2893 6.46957 29.5 7 29.5H21C21.5304 29.5 22.0391 29.2893 22.4142 28.9142C22.7893 28.5391 23 28.0304 23 27.5V25.5H25C25.5304 25.5 26.0391 25.2893 26.4142 24.9142C26.7893 24.5391 27 24.0304 27 23.5V9.5C27.0001 9.36864 26.9743 9.23855 26.9241 9.11715C26.8739 8.99576 26.8003 8.88544 26.7075 8.7925ZM21 27.5H7V9.5H16.5863L21 13.9137V24.48C21 24.4875 21 24.4937 21 24.5C21 24.5063 21 24.5125 21 24.52V27.5ZM25 23.5H23V13.5C23.0001 13.3686 22.9743 13.2385 22.9241 13.1172C22.8739 12.9958 22.8003 12.8854 22.7075 12.7925L17.7075 7.7925C17.6146 7.69967 17.5042 7.62605 17.3829 7.57586C17.2615 7.52568 17.1314 7.4999 17 7.5H11V5.5H20.5863L25 9.91375V23.5ZM18 19.5C18 19.7652 17.8946 20.0196 17.7071 20.2071C17.5196 20.3946 17.2652 20.5 17 20.5H11C10.7348 20.5 10.4804 20.3946 10.2929 20.2071C10.1054 20.0196 10 19.7652 10 19.5C10 19.2348 10.1054 18.9804 10.2929 18.7929C10.4804 18.6054 10.7348 18.5 11 18.5H17C17.2652 18.5 17.5196 18.6054 17.7071 18.7929C17.8946 18.9804 18 19.2348 18 19.5ZM18 23.5C18 23.7652 17.8946 24.0196 17.7071 24.2071C17.5196 24.3946 17.2652 24.5 17 24.5H11C10.7348 24.5 10.4804 24.3946 10.2929 24.2071C10.1054 24.0196 10 23.7652 10 23.5C10 23.2348 10.1054 22.9804 10.2929 22.7929C10.4804 22.6054 10.7348 22.5 11 22.5H17C17.2652 22.5 17.5196 22.6054 17.7071 22.7929C17.8946 22.9804 18 23.2348 18 23.5Z" fill="#08B5D6"/>
</g>
</g>
</g>
</g>
</g>
</g>
</g>
<defs>
<clipPath id="clip0_732_164">
<rect width="1440" height="5806" fill="white" transform="translate(-756 -2611)"/>
</clipPath>
</defs>
</svg>
