<svg width="24" height="24" viewBox="0 0 24 24" fill="none" xmlns="http://www.w3.org/2000/svg">
<rect width="24" height="24" rx="6.75824" fill="white"/>
<g clip-path="url(#clip0_2843_582)">
<path d="M15.75 4.125H8.25C6.17893 4.125 4.5 5.80393 4.5 7.875V15.375C4.5 17.4461 6.17893 19.125 8.25 19.125H15.75C17.8211 19.125 19.5 17.4461 19.5 15.375V7.875C19.5 5.80393 17.8211 4.125 15.75 4.125Z" stroke="#292A2C" stroke-width="1.35165" stroke-linecap="round" stroke-linejoin="round"/>
<path d="M15.0003 11.1525C15.0928 11.7767 14.9862 12.4141 14.6956 12.9742C14.405 13.5343 13.9451 13.9885 13.3815 14.2722C12.8178 14.5559 12.1791 14.6547 11.5561 14.5544C10.9331 14.4542 10.3576 14.16 9.9114 13.7139C9.46521 13.2677 9.17107 12.6921 9.07082 12.0691C8.97057 11.4461 9.06932 10.8074 9.35301 10.2438C9.63671 9.68012 10.0909 9.22029 10.651 8.92966C11.2111 8.63904 11.8486 8.53242 12.4728 8.62498C13.1095 8.7194 13.6989 9.01608 14.154 9.47121C14.6092 9.92634 14.9059 10.5158 15.0003 11.1525Z" stroke="#292A2C" stroke-width="1.35165" stroke-linecap="round" stroke-linejoin="round"/>
<path d="M16.125 7.5H16.1327" stroke="#292A2C" stroke-width="1.35165" stroke-linecap="round" stroke-linejoin="round"/>
</g>
<defs>
<clipPath id="clip0_2843_582">
<rect width="18" height="18" fill="white" transform="translate(3.00049 2.625)"/>
</clipPath>
</defs>
</svg>
