<svg width="200" height="200" viewBox="0 0 200 200" fill="none" xmlns="http://www.w3.org/2000/svg">
<circle cx="100" cy="100" r="100" fill="#E2F8FF"/>
<mask id="mask0_2938_7304" style="mask-type:luminance" maskUnits="userSpaceOnUse" x="11" y="41" width="177" height="118">
<path d="M11 41H188V159H11V41Z" fill="white"/>
</mask>
<g mask="url(#mask0_2938_7304)">
<path d="M127.345 54.8916C126.615 54.8916 126.021 55.4859 126.021 56.2161V118.349C126.021 119.079 126.615 119.673 127.345 119.673H170.001C170.732 119.673 171.326 119.079 171.326 118.349V56.2161C171.326 55.4859 170.732 54.8916 170.001 54.8916H127.345ZM170.001 119.732H127.345C126.583 119.732 125.962 119.111 125.962 118.349V56.2161C125.962 55.4531 126.583 54.8326 127.345 54.8326H170.001C170.764 54.8326 171.385 55.4531 171.385 56.2161V118.349C171.385 119.111 170.764 119.732 170.001 119.732Z" fill="#E1E1E1"/>
<path d="M78.1549 54.8916C77.4247 54.8916 76.8305 55.4859 76.8305 56.2161V118.349C76.8305 119.079 77.4247 119.673 78.1549 119.673H120.811C121.541 119.673 122.136 119.079 122.136 118.349V56.2161C122.136 55.4859 121.541 54.8916 120.811 54.8916H78.1549ZM120.811 119.732H78.1549C77.3922 119.732 76.7715 119.111 76.7715 118.349V56.2161C76.7715 55.4531 77.3922 54.8326 78.1549 54.8326H120.811C121.574 54.8326 122.195 55.4531 122.195 56.2161V118.349C122.195 119.111 121.574 119.732 120.811 119.732Z" fill="#E1E1E1"/>
<path d="M28.9987 54.8916C28.2685 54.8916 27.6742 55.4859 27.6742 56.2161V118.349C27.6742 119.079 28.2685 119.673 28.9987 119.673H71.6547C72.3851 119.673 72.9794 119.079 72.9794 118.349V56.2161C72.9794 55.4859 72.3851 54.8916 71.6547 54.8916H28.9987ZM71.6547 119.732H28.9987C28.2359 119.732 27.6152 119.111 27.6152 118.349V56.2161C27.6152 55.4531 28.2359 54.8326 28.9987 54.8326H71.6547C72.4177 54.8326 73.0384 55.4531 73.0384 56.2161V118.349C73.0384 119.111 72.4177 119.732 71.6547 119.732Z" fill="#E1E1E1"/>
<path d="M188 134.173H11V134.145H188V134.173Z" fill="#E1E1E1"/>
<path d="M73.5546 76.5907C75.107 76.5907 76.3571 75.2967 76.2849 73.7282C76.2209 72.3365 75.0756 71.1912 73.6837 71.127C72.1155 71.055 70.8213 72.3051 70.8213 73.8573V73.858C70.8243 75.3653 72.0473 76.5857 73.5546 76.5857V76.5907ZM69.3913 69.6929C71.7336 67.4376 75.4603 67.5084 77.7155 69.8505C79.9099 72.1298 79.9106 75.7359 77.7167 78.0159L74.391 81.3418C73.9294 81.8037 73.181 81.8037 72.7192 81.342L69.3913 78.014C67.0948 75.7156 67.0948 71.9913 69.3913 69.6929Z" fill="#E7E7E7"/>
<path d="M167.368 98.2651V87.0542H160.427V89.6108H155.8V61.6061H146.904V72.6285H144.235V67.1245H137.294V93.9676H127.506V84.4835H121.369V63.9208H113.795V77.6293H106.676V107.161H101.161V92.7807H95.4651V83.5272H89.4153V76.4226L82.665 79.9834V98.9908H75.5465V95.0702H66.0371V122.619L176.723 122.673V98.2651H167.368Z" fill="#ECECEC"/>
<path d="M95.9303 122.634V81.6458H88.3672V122.673C90.7607 122.613 95.9303 122.634 95.9303 122.634Z" fill="#E7E7E7"/>
<path d="M89.0422 122.673V100.13H73.4775V122.623L89.0422 122.673Z" fill="#FAFAFA"/>
<path d="M107.953 122.639V89.5461H99.1357V122.635L107.953 122.639Z" fill="#E1E1E1"/>
<path d="M99.8057 90.8428H100.875V93.048H99.8057V90.8428Z" fill="#FAFAFA"/>
<path d="M101.942 90.8428H103.011V93.048H101.942V90.8428Z" fill="#FAFAFA"/>
<path d="M104.082 90.8428H105.151V93.048H104.082V90.8428Z" fill="#FAFAFA"/>
<path d="M106.219 90.8428H107.288V93.048H106.219V90.8428Z" fill="#FAFAFA"/>
<path d="M99.8057 94.5414H100.875V96.7463H99.8057V94.5414Z" fill="#FAFAFA"/>
<path d="M101.942 94.5414H103.011V96.7463H101.942V94.5414Z" fill="#FAFAFA"/>
<path d="M104.082 94.5414H105.151V96.7463H104.082V94.5414Z" fill="#FAFAFA"/>
<path d="M106.219 94.5414H107.288V96.7463H106.219V94.5414Z" fill="#FAFAFA"/>
<path d="M99.8057 98.2371H100.875V100.442H99.8057V98.2371Z" fill="#FAFAFA"/>
<path d="M101.942 98.2371H103.011V100.442H101.942V98.2371Z" fill="#FAFAFA"/>
<path d="M104.082 98.2371H105.151V100.442H104.082V98.2371Z" fill="#FAFAFA"/>
<path d="M106.219 98.2371H107.288V100.442H106.219V98.2371Z" fill="#FAFAFA"/>
<path d="M99.8057 101.933H100.875V104.138H99.8057V101.933Z" fill="#FAFAFA"/>
<path d="M101.942 101.933H103.011V104.138H101.942V101.933Z" fill="#FAFAFA"/>
<path d="M104.082 101.933H105.151V104.138H104.082V101.933Z" fill="#FAFAFA"/>
<path d="M106.219 101.933H107.288V104.138H106.219V101.933Z" fill="#FAFAFA"/>
<path d="M99.8057 105.629H100.875V107.833H99.8057V105.629Z" fill="#FAFAFA"/>
<path d="M101.942 105.629H103.011V107.833H101.942V105.629Z" fill="#FAFAFA"/>
<path d="M104.082 105.629H105.151V107.833H104.082V105.629Z" fill="#FAFAFA"/>
<path d="M106.219 105.629H107.288V107.833H106.219V105.629Z" fill="#FAFAFA"/>
<path d="M99.8057 109.324H100.875V111.529H99.8057V109.324Z" fill="#FAFAFA"/>
<path d="M101.942 109.324H103.011V111.529H101.942V109.324Z" fill="#FAFAFA"/>
<path d="M104.082 109.324H105.151V111.529H104.082V109.324Z" fill="#FAFAFA"/>
<path d="M106.219 109.324H107.288V111.529H106.219V109.324Z" fill="#FAFAFA"/>
<path d="M99.8057 113.02H100.875V115.225H99.8057V113.02Z" fill="#FAFAFA"/>
<path d="M101.942 113.02H103.011V115.225H101.942V113.02Z" fill="#FAFAFA"/>
<path d="M104.082 113.02H105.151V115.225H104.082V113.02Z" fill="#FAFAFA"/>
<path d="M106.219 113.02H107.288V115.225H106.219V113.02Z" fill="#FAFAFA"/>
<path d="M99.8057 116.718H100.875V118.924H99.8057V116.718Z" fill="#FAFAFA"/>
<path d="M101.942 116.718H103.011V118.924H101.942V116.718Z" fill="#FAFAFA"/>
<path d="M104.082 116.718H105.151V118.924H104.082V116.718Z" fill="#FAFAFA"/>
<path d="M106.219 116.718H107.288V118.924H106.219V116.718Z" fill="#FAFAFA"/>
<path d="M138.594 122.654V84.8325H120.312V122.667C120.312 122.667 138.454 122.673 138.594 122.654Z" fill="#F5F5F5"/>
<path d="M121.685 86.3399H123.901V88.8798H121.685V86.3399Z" fill="#E7E7E7"/>
<path d="M126.12 86.3399H128.336V88.8798H126.12V86.3399Z" fill="#E7E7E7"/>
<path d="M130.554 86.3399H132.77V88.8798H130.554V86.3399Z" fill="#E7E7E7"/>
<path d="M134.988 86.3399H137.205V88.8798H134.988V86.3399Z" fill="#E7E7E7"/>
<path d="M121.685 90.6008H123.901V93.1406H121.685V90.6008Z" fill="#E7E7E7"/>
<path d="M126.12 90.6008H128.336V93.1406H126.12V90.6008Z" fill="#E7E7E7"/>
<path d="M130.554 90.6008H132.77V93.1406H130.554V90.6008Z" fill="#E7E7E7"/>
<path d="M134.988 90.6008H137.205V93.1406H134.988V90.6008Z" fill="#E7E7E7"/>
<path d="M121.685 94.8592H123.901V97.399H121.685V94.8592Z" fill="#E7E7E7"/>
<path d="M126.12 94.8592H128.336V97.399H126.12V94.8592Z" fill="#E7E7E7"/>
<path d="M130.554 94.8592H132.77V97.399H130.554V94.8592Z" fill="#E7E7E7"/>
<path d="M134.988 94.8592H137.205V97.399H134.988V94.8592Z" fill="#E7E7E7"/>
<path d="M121.685 99.1174H123.901V101.657H121.685V99.1174Z" fill="#E7E7E7"/>
<path d="M126.12 99.1174H128.336V101.657H126.12V99.1174Z" fill="#E7E7E7"/>
<path d="M130.554 99.1174H132.77V101.657H130.554V99.1174Z" fill="#E7E7E7"/>
<path d="M134.988 99.1174H137.205V101.657H134.988V99.1174Z" fill="#E7E7E7"/>
<path d="M121.685 103.378H123.901V105.918H121.685V103.378Z" fill="#E7E7E7"/>
<path d="M126.12 103.378H128.336V105.918H126.12V103.378Z" fill="#E7E7E7"/>
<path d="M130.554 103.378H132.77V105.918H130.554V103.378Z" fill="#E7E7E7"/>
<path d="M134.988 103.378H137.205V105.918H134.988V103.378Z" fill="#E7E7E7"/>
<path d="M121.685 107.637H123.901V110.177H121.685V107.637Z" fill="#E7E7E7"/>
<path d="M126.12 107.637H128.336V110.177H126.12V107.637Z" fill="#E7E7E7"/>
<path d="M130.554 107.637H132.77V110.177H130.554V107.637Z" fill="#E7E7E7"/>
<path d="M134.988 107.637H137.205V110.177H134.988V107.637Z" fill="#E7E7E7"/>
<path d="M121.685 111.898H123.901V114.438H121.685V111.898Z" fill="#E7E7E7"/>
<path d="M126.12 111.898H128.336V114.438H126.12V111.898Z" fill="#E7E7E7"/>
<path d="M130.554 111.898H132.77V114.438H130.554V111.898Z" fill="#E7E7E7"/>
<path d="M134.988 111.898H137.205V114.438H134.988V111.898Z" fill="#E7E7E7"/>
<path d="M121.685 116.156H123.901V118.696H121.685V116.156Z" fill="#E7E7E7"/>
<path d="M126.12 116.156H128.336V118.696H126.12V116.156Z" fill="#E7E7E7"/>
<path d="M130.554 116.156H132.77V118.696H130.554V116.156Z" fill="#E7E7E7"/>
<path d="M134.988 116.156H137.205V118.696H134.988V116.156Z" fill="#E7E7E7"/>
<path d="M89.7617 84.4316H91.8041V86.772H89.7617V84.4316Z" fill="#FAFAFA"/>
<path d="M89.7617 88.3555H91.8041V90.6959H89.7617V88.3555Z" fill="#FAFAFA"/>
<path d="M89.7617 92.2821H91.8041V94.6226H89.7617V92.2821Z" fill="#FAFAFA"/>
<path d="M89.7617 96.2061H91.8041V98.5465H89.7617V96.2061Z" fill="#FAFAFA"/>
<path d="M89.7617 100.13H91.8041V102.47H89.7617V100.13Z" fill="#FAFAFA"/>
<path d="M89.7617 104.057H91.8041V106.397H89.7617V104.057Z" fill="#FAFAFA"/>
<path d="M89.7617 107.981H91.8041V110.321H89.7617V107.981Z" fill="#FAFAFA"/>
<path d="M89.7617 111.907H91.8041V114.248H89.7617V111.907Z" fill="#FAFAFA"/>
<path d="M92.4932 84.4316H94.5355V86.772H92.4932V84.4316Z" fill="#FAFAFA"/>
<path d="M92.4932 88.3555H94.5355V90.6959H92.4932V88.3555Z" fill="#FAFAFA"/>
<path d="M92.4932 92.2821H94.5355V94.6226H92.4932V92.2821Z" fill="#FAFAFA"/>
<path d="M92.4932 96.2061H94.5355V98.5465H92.4932V96.2061Z" fill="#FAFAFA"/>
<path d="M92.4932 100.13H94.5355V102.47H92.4932V100.13Z" fill="#FAFAFA"/>
<path d="M92.4932 104.057H94.5355V106.397H92.4932V104.057Z" fill="#FAFAFA"/>
<path d="M92.4932 107.981H94.5355V110.321H92.4932V107.981Z" fill="#FAFAFA"/>
<path d="M92.4932 111.907H94.5355V114.248H92.4932V111.907Z" fill="#FAFAFA"/>
<path d="M115.528 66.6408H117.745V69.1807H115.528V66.6408Z" fill="#FAFAFA"/>
<path d="M115.528 70.8992H117.745V73.4391H115.528V70.8992Z" fill="#FAFAFA"/>
<path d="M115.528 74.8674H117.745V77.4072H115.528V74.8674Z" fill="#FAFAFA"/>
<path d="M115.528 79.1256H117.745V81.6654H115.528V79.1256Z" fill="#FAFAFA"/>
<path d="M115.528 83.384H117.745V85.9238H115.528V83.384Z" fill="#FAFAFA"/>
<path d="M115.528 87.645H117.745V90.1848H115.528V87.645Z" fill="#FAFAFA"/>
<path d="M115.528 91.903H117.745V94.4429H115.528V91.903Z" fill="#FAFAFA"/>
<path d="M115.528 96.1641H117.745V98.704H115.528V96.1641Z" fill="#FAFAFA"/>
<path d="M148.82 62.9478H151.037V65.4877H148.82V62.9478Z" fill="#FAFAFA"/>
<path d="M148.82 67.2059H151.037V69.7457H148.82V67.2059Z" fill="#FAFAFA"/>
<path d="M148.82 71.4669H151.037V74.0067H148.82V71.4669Z" fill="#FAFAFA"/>
<path d="M148.82 75.7253H151.037V78.2651H148.82V75.7253Z" fill="#FAFAFA"/>
<path d="M148.82 79.9862H151.037V82.526H148.82V79.9862Z" fill="#FAFAFA"/>
<path d="M148.82 84.2443H151.037V86.7842H148.82V84.2443Z" fill="#FAFAFA"/>
<path d="M148.82 88.5057H151.037V91.0455H148.82V88.5057Z" fill="#FAFAFA"/>
<path d="M148.82 92.7638H151.037V95.3036H148.82V92.7638Z" fill="#FAFAFA"/>
<path d="M153.567 122.673H166.916V82.5147H153.567V122.673Z" fill="#E7E7E7"/>
<path d="M155.542 84.4947H159.454V87.0345H155.542V84.4947Z" fill="#FAFAFA"/>
<path d="M155.542 88.7558H159.454V91.2957H155.542V88.7558Z" fill="#FAFAFA"/>
<path d="M155.542 93.0142H159.454V95.5541H155.542V93.0142Z" fill="#FAFAFA"/>
<path d="M155.542 97.2751H159.454V99.8149H155.542V97.2751Z" fill="#FAFAFA"/>
<path d="M155.542 101.533H159.454V104.073H155.542V101.533Z" fill="#FAFAFA"/>
<path d="M155.542 105.792H159.454V108.332H155.542V105.792Z" fill="#FAFAFA"/>
<path d="M155.542 110.053H159.454V112.593H155.542V110.053Z" fill="#FAFAFA"/>
<path d="M155.542 114.311H159.454V116.851H155.542V114.311Z" fill="#FAFAFA"/>
<path d="M160.777 84.4947H164.69V87.0345H160.777V84.4947Z" fill="#FAFAFA"/>
<path d="M160.777 88.7558H164.69V91.2957H160.777V88.7558Z" fill="#FAFAFA"/>
<path d="M160.777 93.0142H164.69V95.5541H160.777V93.0142Z" fill="#FAFAFA"/>
<path d="M160.777 97.2751H164.69V99.8149H160.777V97.2751Z" fill="#FAFAFA"/>
<path d="M160.777 101.533H164.69V104.073H160.777V101.533Z" fill="#FAFAFA"/>
<path d="M160.777 105.792H164.69V108.332H160.777V105.792Z" fill="#FAFAFA"/>
<path d="M160.777 110.053H164.69V112.593H160.777V110.053Z" fill="#FAFAFA"/>
<path d="M160.777 114.311H164.69V116.851H160.777V114.311Z" fill="#FAFAFA"/>
<path d="M146.289 122.658V94.859H140.467V122.655L146.289 122.658Z" fill="#E1E1E1"/>
<path d="M140.909 95.9842H141.615V97.8772H140.909V95.9842Z" fill="#FAFAFA"/>
<path d="M142.321 95.9842H143.027V97.8772H142.321V95.9842Z" fill="#FAFAFA"/>
<path d="M143.729 95.9842H144.435V97.8772H143.729V95.9842Z" fill="#FAFAFA"/>
<path d="M145.142 95.9842H145.847V97.8772H145.142V95.9842Z" fill="#FAFAFA"/>
<path d="M140.909 99.1595H141.615V101.052H140.909V99.1595Z" fill="#FAFAFA"/>
<path d="M142.321 99.1595H143.027V101.052H142.321V99.1595Z" fill="#FAFAFA"/>
<path d="M143.729 99.1595H144.435V101.052H143.729V99.1595Z" fill="#FAFAFA"/>
<path d="M145.142 99.1595H145.847V101.052H145.142V99.1595Z" fill="#FAFAFA"/>
<path d="M140.909 102.335H141.615V104.228H140.909V102.335Z" fill="#FAFAFA"/>
<path d="M142.321 102.335H143.027V104.228H142.321V102.335Z" fill="#FAFAFA"/>
<path d="M143.729 102.335H144.435V104.228H143.729V102.335Z" fill="#FAFAFA"/>
<path d="M145.142 102.335H145.847V104.228H145.142V102.335Z" fill="#FAFAFA"/>
<path d="M140.909 105.51H141.615V107.403H140.909V105.51Z" fill="#FAFAFA"/>
<path d="M142.321 105.51H143.027V107.403H142.321V105.51Z" fill="#FAFAFA"/>
<path d="M143.729 105.51H144.435V107.403H143.729V105.51Z" fill="#FAFAFA"/>
<path d="M145.142 105.51H145.847V107.403H145.142V105.51Z" fill="#FAFAFA"/>
<path d="M140.909 108.689H141.615V110.582H140.909V108.689Z" fill="#FAFAFA"/>
<path d="M142.321 108.689H143.027V110.582H142.321V108.689Z" fill="#FAFAFA"/>
<path d="M143.729 108.689H144.435V110.582H143.729V108.689Z" fill="#FAFAFA"/>
<path d="M145.142 108.689H145.847V110.582H145.142V108.689Z" fill="#FAFAFA"/>
<path d="M140.909 111.864H141.615V113.757H140.909V111.864Z" fill="#FAFAFA"/>
<path d="M142.321 111.864H143.027V113.757H142.321V111.864Z" fill="#FAFAFA"/>
<path d="M143.729 111.864H144.435V113.757H143.729V111.864Z" fill="#FAFAFA"/>
<path d="M145.142 111.864H145.847V113.757H145.142V111.864Z" fill="#FAFAFA"/>
<path d="M140.909 115.039H141.615V116.932H140.909V115.039Z" fill="#FAFAFA"/>
<path d="M142.321 115.039H143.027V116.932H142.321V115.039Z" fill="#FAFAFA"/>
<path d="M143.729 115.039H144.435V116.932H143.729V115.039Z" fill="#FAFAFA"/>
<path d="M145.142 115.039H145.847V116.932H145.142V115.039Z" fill="#FAFAFA"/>
<path d="M140.909 118.215H141.615V120.108H140.909V118.215Z" fill="#FAFAFA"/>
<path d="M142.321 118.215H143.027V120.108H142.321V118.215Z" fill="#FAFAFA"/>
<path d="M143.729 118.215H144.435V120.108H143.729V118.215Z" fill="#FAFAFA"/>
<path d="M145.142 118.215H145.847V120.108H145.142V118.215Z" fill="#FAFAFA"/>
<path d="M74.6553 101.072H76.5426V102.661H74.6553V101.072Z" fill="#E7E7E7"/>
<path d="M78.4297 101.072H80.317V102.661H78.4297V101.072Z" fill="#E7E7E7"/>
<path d="M82.2021 101.072H84.0894V102.661H82.2021V101.072Z" fill="#E7E7E7"/>
<path d="M85.9766 101.072H87.8639V102.661H85.9766V101.072Z" fill="#E7E7E7"/>
<path d="M74.6553 103.736H76.5426V105.325H74.6553V103.736Z" fill="#E7E7E7"/>
<path d="M78.4297 103.736H80.317V105.325H78.4297V103.736Z" fill="#E7E7E7"/>
<path d="M82.2021 103.736H84.0894V105.325H82.2021V103.736Z" fill="#E7E7E7"/>
<path d="M85.9766 103.736H87.8639V105.325H85.9766V103.736Z" fill="#E7E7E7"/>
<path d="M74.6553 106.399H76.5426V107.988H74.6553V106.399Z" fill="#E7E7E7"/>
<path d="M78.4297 106.399H80.317V107.988H78.4297V106.399Z" fill="#E7E7E7"/>
<path d="M82.2021 106.399H84.0894V107.988H82.2021V106.399Z" fill="#E7E7E7"/>
<path d="M85.9766 106.399H87.8639V107.988H85.9766V106.399Z" fill="#E7E7E7"/>
<path d="M74.6553 109.063H76.5426V110.652H74.6553V109.063Z" fill="#E7E7E7"/>
<path d="M78.4297 109.063H80.317V110.652H78.4297V109.063Z" fill="#E7E7E7"/>
<path d="M82.2021 109.063H84.0894V110.652H82.2021V109.063Z" fill="#E7E7E7"/>
<path d="M85.9766 109.063H87.8639V110.652H85.9766V109.063Z" fill="#E7E7E7"/>
<path d="M74.6553 111.723H76.5426V113.312H74.6553V111.723Z" fill="#E7E7E7"/>
<path d="M78.4297 111.723H80.317V113.312H78.4297V111.723Z" fill="#E7E7E7"/>
<path d="M82.2021 111.723H84.0894V113.312H82.2021V111.723Z" fill="#E7E7E7"/>
<path d="M85.9766 111.723H87.8639V113.312H85.9766V111.723Z" fill="#E7E7E7"/>
<path d="M74.6553 114.387H76.5426V115.976H74.6553V114.387Z" fill="#E7E7E7"/>
<path d="M78.4297 114.387H80.317V115.976H78.4297V114.387Z" fill="#E7E7E7"/>
<path d="M82.2021 114.387H84.0894V115.976H82.2021V114.387Z" fill="#E7E7E7"/>
<path d="M85.9766 114.387H87.8639V115.976H85.9766V114.387Z" fill="#E7E7E7"/>
<path d="M74.6553 117.05H76.5426V118.639H74.6553V117.05Z" fill="#E7E7E7"/>
<path d="M78.4297 117.05H80.317V118.639H78.4297V117.05Z" fill="#E7E7E7"/>
<path d="M82.2021 117.05H84.0894V118.639H82.2021V117.05Z" fill="#E7E7E7"/>
<path d="M85.9766 117.05H87.8639V118.639H85.9766V117.05Z" fill="#E7E7E7"/>
<path d="M165.256 141.077H178.408V141.177H165.256V141.077Z" fill="#ECECEC"/>
<path d="M127.83 142.155H131.282V142.254H127.83V142.155Z" fill="#ECECEC"/>
<path d="M20.5918 138.057H37.7429V138.156H20.5918V138.057Z" fill="#ECECEC"/>
<path d="M41.2793 138.057H43.7941V138.156H41.2793V138.057Z" fill="#ECECEC"/>
<path d="M51.9658 139.734H89.1625V139.833H51.9658V139.734Z" fill="#ECECEC"/>
</g>
<mask id="mask1_2938_7304" style="mask-type:luminance" maskUnits="userSpaceOnUse" x="11" y="41" width="177" height="118">
<path d="M11 41H188V159H11V41Z" fill="white"/>
</mask>
<g mask="url(#mask1_2938_7304)">
<path d="M166.04 147.585C166.04 148.385 138.293 149.032 104.066 149.032C69.8393 149.032 42.0928 148.385 42.0928 147.585C42.0928 146.786 69.8393 146.138 104.066 146.138C138.293 146.138 166.04 146.786 166.04 147.585Z" fill="#F5F5F5"/>
</g>
<mask id="mask2_2938_7304" style="mask-type:luminance" maskUnits="userSpaceOnUse" x="11" y="41" width="177" height="118">
<path d="M11 41H188V159H11V41Z" fill="white"/>
</mask>
<g mask="url(#mask2_2938_7304)">
<path d="M56.8427 136.808H25.5562C23.3371 136.808 21.5381 135.009 21.5381 132.79V63.9037C21.5381 62.1915 22.9262 60.8034 24.6384 60.8034H57.7605C59.4727 60.8034 60.8606 62.1915 60.8606 63.9037V132.79C60.8606 135.009 59.0618 136.808 56.8427 136.808Z" fill="#1A2E35"/>
<path d="M49.3504 62.5086L48.7213 63.7521H33.3343L32.4191 62.5086H25.1453C23.9816 62.5086 23.0381 63.441 23.0381 64.5911V131.638C23.0381 133.376 24.4635 134.785 26.2222 134.785H56.1765C57.9349 134.785 59.3606 133.376 59.3606 131.638V64.5911C59.3606 63.441 58.4171 62.5086 57.2534 62.5086H49.3504Z" fill="white"/>
<path d="M41.1824 62.3901C41.1824 62.7396 40.8992 63.0228 40.5497 63.0228C40.2002 63.0228 39.917 62.7396 39.917 62.3901C39.917 62.0406 40.2002 61.7574 40.5497 61.7574C40.8992 61.7574 41.1824 62.0406 41.1824 62.3901Z" fill="white"/>
<path d="M42.1151 62.3901C42.1151 62.5647 41.9735 62.7063 41.7987 62.7063C41.624 62.7063 41.4824 62.5647 41.4824 62.3901C41.4824 62.2154 41.624 62.0736 41.7987 62.0736C41.9735 62.0736 42.1151 62.2154 42.1151 62.3901Z" fill="white"/>
<path d="M57.2534 62.5086H49.3504L48.7213 63.7521H33.3343L32.4191 62.5086H25.1453C23.9816 62.5086 23.0381 63.4408 23.0381 64.5911V81.7452H59.3606V64.5911C59.3606 63.4408 58.4171 62.5086 57.2534 62.5086Z" fill="#007CFF"/>
</g>
<mask id="mask3_2938_7304" style="mask-type:luminance" maskUnits="userSpaceOnUse" x="11" y="41" width="177" height="118">
<path d="M11 41H188V159H11V41Z" fill="white"/>
</mask>
<g mask="url(#mask3_2938_7304)">
<path d="M45.1167 71.2973V70.0495C45.1167 69.9407 45.062 69.84 44.9725 69.7802C44.9721 69.78 44.9718 69.7798 44.9716 69.7793C44.9624 69.7734 44.9532 69.7677 44.9435 69.7625L44.0583 69.2967C44.0552 69.295 44.0524 69.2934 44.05 69.2913C44.0439 69.2861 44.0391 69.2795 44.0363 69.2719C44.0273 69.2478 44.0399 69.2209 44.0642 69.212L44.1725 69.1733C44.1815 69.1702 44.1881 69.1622 44.1892 69.1525C44.1911 69.1388 44.1812 69.1261 44.1675 69.1242C43.7467 69.0656 42.111 68.8516 41.251 68.9568C41.0792 68.9778 40.9086 69.021 40.7439 69.0781L40.7434 69.0779C40.1664 69.278 39.663 69.6488 39.4364 69.8312C39.3543 69.8975 39.3085 69.9391 39.3085 69.9391C38.5786 69.9117 37.897 70.1659 37.6037 70.2933C37.509 70.3346 37.4361 70.4141 37.4031 70.5118L37.3028 70.8094C37.2895 70.847 37.2827 70.8866 37.2822 70.9265V71.5552C37.282 71.6897 37.3698 71.8087 37.4984 71.8486L37.5499 71.8639C37.5812 71.8738 37.6143 71.8783 37.6473 71.8776H37.6478C37.6478 71.8776 37.648 71.8776 37.6483 71.8776L37.9869 71.8696C37.9841 71.8599 37.9815 71.85 37.9789 71.8401C37.9789 71.8396 37.9787 71.8389 37.9784 71.8382L38.1255 71.8346C38.158 71.9463 38.2182 72.0515 38.3062 72.1395C38.5852 72.4185 39.0374 72.4185 39.3165 72.1395C39.4128 72.043 39.4758 71.926 39.5058 71.8023L39.6514 71.799C39.6493 71.8094 39.6472 71.8198 39.6448 71.8301H39.646L43.0097 71.7501L43.0909 71.7483C43.0895 71.7383 43.0883 71.7284 43.0874 71.7185L43.2299 71.715C43.2476 71.87 43.3156 72.0204 43.4345 72.1393C43.7135 72.4183 44.1656 72.4183 44.4448 72.1393C44.572 72.0119 44.6412 71.8483 44.6523 71.6817L44.7943 71.6784C44.7943 71.6803 44.7943 71.6822 44.7943 71.6838C44.7948 71.6836 44.7955 71.6834 44.7962 71.6831C44.7962 71.6834 44.7962 71.6836 44.7962 71.6838C44.8007 71.6822 44.8054 71.6803 44.8102 71.6782L44.8777 71.6475V71.647L44.926 71.6255C45.0421 71.5729 45.117 71.4573 45.117 71.3298L45.1167 71.2973Z" fill="white"/>
<path d="M54.162 105.616L26.8232 106.257V101.581H54.4249L54.162 105.616Z" fill="#1A2E35"/>
<mask id="mask4_2938_7304" style="mask-type:luminance" maskUnits="userSpaceOnUse" x="26" y="101" width="29" height="6">
<path d="M26.8232 101.581H54.425V106.257H26.8232V101.581Z" fill="white"/>
</mask>
<g mask="url(#mask4_2938_7304)">
<g opacity="0.5">
<path d="M54.162 105.616L26.8232 106.257V101.581H54.4249L54.162 105.616Z" fill="black"/>
</g>
</g>
<path d="M25.7715 102.781V105.153C25.7712 105.661 26.1024 106.109 26.5878 106.259L26.7811 106.318C26.9 106.355 27.0242 106.372 27.1488 106.369L28.4255 106.339C28.2738 105.809 28.2606 105.248 28.3868 104.711C28.7954 102.972 30.5363 101.893 32.2754 102.302C34.0145 102.71 35.093 104.451 34.6845 106.19L47.6763 105.881C47.6553 105.729 47.6451 105.576 47.6459 105.423C47.6536 103.637 49.1079 102.195 50.8944 102.203C52.6807 102.21 54.1226 103.665 54.1148 105.451C54.1148 105.514 54.1097 105.577 54.1097 105.639C54.1266 105.632 54.1446 105.625 54.1616 105.616L54.606 105.418C55.0442 105.22 55.326 104.784 55.326 104.303V99.4734C55.3262 99.0191 55.0744 98.602 54.6723 98.3906L51.3331 96.6345C51.2949 96.6142 51.2654 96.5805 51.2505 96.5399C51.217 96.4485 51.264 96.3473 51.3553 96.3138L51.7638 96.1672C51.798 96.1554 51.8228 96.1252 51.8273 96.0893C51.8341 96.0372 51.7973 95.9893 51.7452 95.9827C50.1585 95.7613 43.9871 94.9544 40.7433 95.3509C37.0013 95.809 33.4153 99.0563 33.4153 99.0563C30.6616 98.9532 28.0911 99.9118 26.9845 100.393C26.6272 100.549 26.3523 100.848 26.2277 101.217L25.8489 102.339C25.7993 102.481 25.7731 102.631 25.7715 102.781Z" fill="#007CFF"/>
<path d="M47.6805 105.881C47.6617 105.739 47.6522 105.595 47.6525 105.451C47.6525 105.378 47.6551 105.306 47.6593 105.233L45.3099 104.272C45.1723 104.216 45.0241 104.192 44.8759 104.202L36.7044 104.738C36.5706 104.746 36.4403 104.782 36.3212 104.843L34.7687 105.642C34.7577 105.827 34.7312 106.01 34.6895 106.19L47.6805 105.881Z" fill="#1A2E35"/>
<path d="M55.3267 104.303V104.18L53.998 104.586C54.0755 104.868 54.1146 105.159 54.1146 105.451C54.1146 105.514 54.1094 105.576 54.1094 105.639C54.1264 105.632 54.1444 105.625 54.1614 105.616L54.6067 105.418C55.0449 105.22 55.3265 104.784 55.3267 104.303Z" fill="#1A2E35"/>
<path d="M26.1475 106.004C26.2742 106.121 26.4259 106.208 26.5909 106.259L26.7842 106.318C26.9031 106.355 27.0273 106.372 27.1519 106.369L28.4286 106.339C28.3824 106.178 28.3491 106.013 28.329 105.846L26.1475 106.004Z" fill="#1A2E35"/>
<path d="M50.8885 101.913C50.7417 101.913 50.5949 101.922 50.4493 101.94C48.5105 102.182 47.1351 103.95 47.3773 105.889L47.6836 105.881C47.6626 105.729 47.6524 105.576 47.6531 105.423C47.6609 103.637 49.1154 102.195 50.9017 102.203C52.6882 102.21 54.1299 103.665 54.1221 105.451C54.1221 105.514 54.1169 105.576 54.1169 105.639C54.1342 105.632 54.1519 105.625 54.1691 105.616L54.4244 105.501V105.451C54.4221 103.498 52.8388 101.915 50.8852 101.913H50.8885Z" fill="#1A2E35"/>
<path d="M31.5402 101.913C31.2379 101.913 30.937 101.951 30.6446 102.028C28.754 102.522 27.6217 104.455 28.1159 106.346L28.43 106.339C28.2782 105.808 28.265 105.248 28.3913 104.711C28.7998 102.971 30.5408 101.893 32.2798 102.301C34.0189 102.71 35.0974 104.451 34.6889 106.19L35.0021 106.183C35.0531 105.942 35.0786 105.696 35.0786 105.449C35.0781 103.496 33.4941 101.912 31.5402 101.913Z" fill="#1A2E35"/>
<path d="M34.6414 98.9983C34.6041 99.0268 34.5781 99.0677 34.5675 99.1135C34.543 99.2223 34.6109 99.3303 34.7197 99.3549L36.0765 99.6664C36.1966 99.6945 36.321 99.7006 36.4435 99.6853L46.4341 98.4458C46.6771 98.4151 46.9021 98.3011 47.0706 98.1232L48.3577 96.7612C48.4004 96.7164 48.4271 96.6583 48.4332 96.5963C48.4481 96.4434 48.3362 96.3072 48.1831 96.2923C45.7801 96.0497 42.744 95.842 40.8338 96.0761C38.3305 96.3825 35.8374 98.0748 34.6414 98.9983Z" fill="#1A2E35"/>
<mask id="mask5_2938_7304" style="mask-type:luminance" maskUnits="userSpaceOnUse" x="41" y="99" width="2" height="2">
<path d="M41.124 99.8009H42.6394V100.153H41.124V99.8009Z" fill="white"/>
</mask>
<g mask="url(#mask5_2938_7304)">
<g opacity="0.300003">
<path d="M41.2057 100.146C41.1415 100.123 41.1082 100.052 41.1314 99.9884C41.1599 99.9088 41.2336 99.8545 41.3178 99.8512L42.5096 99.801C42.5257 99.8003 42.5417 99.8026 42.5568 99.8081C42.6215 99.8312 42.6552 99.9025 42.6321 99.9669C42.6033 100.046 42.5292 100.1 42.4449 100.104L41.2531 100.153C41.2371 100.154 41.2208 100.152 41.2057 100.146Z" fill="black"/>
</g>
</g>
<path d="M50.0692 96.732C49.9637 96.8257 49.9542 96.9871 50.0479 97.0926L50.3306 97.3999C50.363 97.4343 50.4043 97.4593 50.4498 97.4721L53.9117 98.4324C53.9719 98.4484 54.034 98.4569 54.0963 98.4569H54.7842C54.7483 98.4331 54.7117 98.4111 54.6735 98.3906L51.3341 96.6329L51.3339 96.6326C51.2496 96.5911 51.2152 96.4891 51.2567 96.4047L50.1723 96.6763C50.1341 96.6867 50.0987 96.7056 50.0692 96.732Z" fill="#1A2E35"/>
<path d="M33.4189 99.0545L33.607 99.108C33.7534 99.1498 33.9105 99.1161 34.0266 99.0179C35.1214 98.0918 37.0246 96.6711 39.0785 96.0089C39.0877 96.0058 39.0955 95.9997 39.0999 95.9912C39.1103 95.9728 39.1039 95.9494 39.0853 95.939L38.83 95.8081C35.867 96.8354 33.4189 99.0545 33.4189 99.0545Z" fill="#1A2E35"/>
<mask id="mask6_2938_7304" style="mask-type:luminance" maskUnits="userSpaceOnUse" x="34" y="100" width="15" height="5">
<path d="M34.6895 100.305H48.6304V104.539H34.6895V100.305Z" fill="white"/>
</mask>
<g mask="url(#mask6_2938_7304)">
<g opacity="0.199997">
<path d="M44.6442 100.305L34.6895 101.017L34.8766 102.245C34.9342 102.621 35.0734 102.979 35.2851 103.296L36.117 104.539L44.6135 103.391L48.6304 100.305H44.6442Z" fill="white"/>
</g>
</g>
<path d="M52.7928 107.357C51.7405 108.409 50.0339 108.409 48.9816 107.357C47.9293 106.304 47.9293 104.598 48.9816 103.545C50.0339 102.493 51.7405 102.493 52.7928 103.545C53.8451 104.598 53.8451 106.304 52.7928 107.357Z" fill="#1A2E35"/>
<mask id="mask7_2938_7304" style="mask-type:luminance" maskUnits="userSpaceOnUse" x="49" y="103" width="4" height="5">
<path d="M49.2354 103.799H52.5398V107.103H49.2354V103.799Z" fill="white"/>
</mask>
<g mask="url(#mask7_2938_7304)">
<g opacity="0.399994">
<path d="M52.0559 106.619C51.4107 107.264 50.3645 107.264 49.7193 106.619C49.074 105.974 49.074 104.928 49.7193 104.283C50.3645 103.637 51.4107 103.637 52.0559 104.283C52.7011 104.928 52.7011 105.974 52.0559 106.619Z" fill="white"/>
</g>
</g>
<mask id="mask8_2938_7304" style="mask-type:luminance" maskUnits="userSpaceOnUse" x="50" y="103" width="2" height="3">
<path d="M50.7559 103.965H51.0204V105.076H50.7559V103.965Z" fill="white"/>
</mask>
<g mask="url(#mask8_2938_7304)">
<g opacity="0.300003">
<path d="M51.0197 104.097V104.944C51.0197 105.017 50.9607 105.076 50.8878 105.076H50.8868C50.8141 105.076 50.7549 105.017 50.7549 104.944V104.097C50.7549 104.024 50.8141 103.965 50.8868 103.965H50.8878C50.9607 103.965 51.0197 104.024 51.0197 104.097Z" fill="white"/>
</g>
</g>
<mask id="mask9_2938_7304" style="mask-type:luminance" maskUnits="userSpaceOnUse" x="50" y="105" width="2" height="2">
<path d="M50.7559 105.827H51.0204V106.938H50.7559V105.827Z" fill="white"/>
</mask>
<g mask="url(#mask9_2938_7304)">
<g opacity="0.300003">
<path d="M51.0197 105.959V106.806C51.0197 106.879 50.9607 106.938 50.8878 106.938H50.8868C50.8141 106.938 50.7549 106.879 50.7549 106.806V105.959C50.7549 105.886 50.8141 105.827 50.8868 105.827H50.8878C50.9607 105.827 51.0197 105.886 51.0197 105.959Z" fill="white"/>
</g>
</g>
<mask id="mask10_2938_7304" style="mask-type:luminance" maskUnits="userSpaceOnUse" x="51" y="104" width="2" height="2">
<path d="M51.1953 104.639H52.1934V105.33H51.1953V104.639Z" fill="white"/>
</mask>
<g mask="url(#mask10_2938_7304)">
<g opacity="0.300003">
<path d="M51.391 105.313C51.3278 105.349 51.2471 105.326 51.2112 105.263L51.211 105.263C51.1746 105.2 51.1963 105.119 51.2596 105.083L51.9924 104.657C52.0558 104.621 52.137 104.642 52.1738 104.706C52.2097 104.769 52.1882 104.849 52.1252 104.886L51.3925 105.312C51.392 105.312 51.3915 105.312 51.391 105.313Z" fill="white"/>
</g>
</g>
<mask id="mask11_2938_7304" style="mask-type:luminance" maskUnits="userSpaceOnUse" x="49" y="105" width="2" height="2">
<path d="M49.582 105.567H50.5796V106.257H49.582V105.567Z" fill="white"/>
</mask>
<g mask="url(#mask11_2938_7304)">
<g opacity="0.300003">
<path d="M49.7799 106.24C49.7166 106.276 49.6359 106.254 49.5998 106.191L49.5996 106.19C49.5632 106.127 49.5852 106.047 49.6482 106.01L50.3812 105.585V105.585C50.4442 105.548 50.5249 105.57 50.5618 105.633C50.5983 105.696 50.5771 105.777 50.5139 105.814L49.7801 106.239L49.7799 106.24Z" fill="white"/>
</g>
</g>
<mask id="mask12_2938_7304" style="mask-type:luminance" maskUnits="userSpaceOnUse" x="51" y="105" width="2" height="2">
<path d="M51.1953 105.57H52.1934V106.261H51.1953V105.57Z" fill="white"/>
</mask>
<g mask="url(#mask12_2938_7304)">
<g opacity="0.300003">
<path d="M51.9945 106.243L51.2617 105.817C51.1982 105.781 51.1765 105.699 51.2131 105.636C51.2501 105.573 51.3311 105.552 51.3943 105.588L52.1273 106.014C52.1901 106.051 52.2118 106.131 52.1757 106.194C52.1391 106.258 52.058 106.28 51.9945 106.243Z" fill="white"/>
</g>
</g>
<mask id="mask13_2938_7304" style="mask-type:luminance" maskUnits="userSpaceOnUse" x="49" y="104" width="2" height="2">
<path d="M49.582 104.639H50.5796V105.329H49.582V104.639Z" fill="white"/>
</mask>
<g mask="url(#mask13_2938_7304)">
<g opacity="0.300003">
<path d="M50.5614 105.264C50.5248 105.327 50.4441 105.348 50.3811 105.312L49.6483 104.886L49.6479 104.886C49.5848 104.849 49.5634 104.769 49.5997 104.706L49.5999 104.705C49.6365 104.642 49.7172 104.621 49.7802 104.657L50.514 105.083C50.577 105.12 50.5982 105.2 50.5616 105.263L50.5614 105.264Z" fill="white"/>
</g>
</g>
<path d="M50.6641 105.45C50.6641 105.328 50.7632 105.229 50.8854 105.229H50.8861C51.0089 105.229 51.1085 105.329 51.1085 105.451C51.1085 105.574 51.0089 105.673 50.8861 105.673C50.7637 105.673 50.6641 105.574 50.6641 105.451V105.45Z" fill="#1A2E35"/>
<path d="M33.4451 107.357C32.3928 108.409 30.6863 108.409 29.634 107.357C28.5816 106.304 28.5816 104.598 29.634 103.546C30.6863 102.493 32.3928 102.493 33.4451 103.546C34.4977 104.598 34.4977 106.304 33.4451 107.357Z" fill="#1A2E35"/>
<mask id="mask14_2938_7304" style="mask-type:luminance" maskUnits="userSpaceOnUse" x="29" y="103" width="5" height="5">
<path d="M29.8896 103.799H33.194V107.104H29.8896V103.799Z" fill="white"/>
</mask>
<g mask="url(#mask14_2938_7304)">
<g opacity="0.399994">
<path d="M32.7092 106.62C32.064 107.265 31.0178 107.265 30.3726 106.62C29.7274 105.974 29.7274 104.928 30.3726 104.283C31.0178 103.638 32.064 103.638 32.7092 104.283C33.3544 104.928 33.3544 105.974 32.7092 106.62Z" fill="white"/>
</g>
</g>
<mask id="mask15_2938_7304" style="mask-type:luminance" maskUnits="userSpaceOnUse" x="31" y="103" width="1" height="3">
<path d="M31.4062 103.965H31.671V105.076H31.4062V103.965Z" fill="white"/>
</mask>
<g mask="url(#mask15_2938_7304)">
<g opacity="0.300003">
<path d="M31.671 104.097V104.944C31.671 105.017 31.612 105.076 31.5391 105.076H31.5382C31.4655 105.076 31.4062 105.017 31.4062 104.944V104.097C31.4062 104.024 31.4655 103.965 31.5382 103.965H31.5391C31.612 103.965 31.671 104.024 31.671 104.097Z" fill="white"/>
</g>
</g>
<mask id="mask16_2938_7304" style="mask-type:luminance" maskUnits="userSpaceOnUse" x="31" y="105" width="1" height="2">
<path d="M31.4062 105.827H31.671V106.938H31.4062V105.827Z" fill="white"/>
</mask>
<g mask="url(#mask16_2938_7304)">
<g opacity="0.300003">
<path d="M31.671 105.959V106.806C31.671 106.879 31.612 106.938 31.5391 106.938H31.5382C31.4655 106.938 31.4062 106.879 31.4062 106.806V105.959C31.4062 105.886 31.4655 105.827 31.5382 105.827H31.5391C31.612 105.827 31.671 105.886 31.671 105.959Z" fill="white"/>
</g>
</g>
<mask id="mask17_2938_7304" style="mask-type:luminance" maskUnits="userSpaceOnUse" x="31" y="104" width="2" height="2">
<path d="M31.8486 104.639H32.8462V105.33H31.8486V104.639Z" fill="white"/>
</mask>
<g mask="url(#mask17_2938_7304)">
<g opacity="0.300003">
<path d="M32.0452 105.313C31.9822 105.348 31.9022 105.326 31.8665 105.263C31.83 105.2 31.8512 105.119 31.9142 105.083L32.6479 104.657L32.6482 104.657C32.7114 104.621 32.7921 104.642 32.8285 104.706L32.8287 104.706C32.8648 104.769 32.8431 104.85 32.7799 104.886L32.0471 105.312C32.0464 105.312 32.0459 105.312 32.0452 105.313Z" fill="white"/>
</g>
</g>
<mask id="mask18_2938_7304" style="mask-type:luminance" maskUnits="userSpaceOnUse" x="30" y="105" width="2" height="2">
<path d="M30.2344 105.567H31.2326V106.257H30.2344V105.567Z" fill="white"/>
</mask>
<g mask="url(#mask18_2938_7304)">
<g opacity="0.300003">
<path d="M30.2522 106.191L30.2519 106.191C30.2156 106.128 30.2375 106.047 30.3008 106.01L31.0336 105.585C31.0968 105.548 31.178 105.569 31.2148 105.633C31.2514 105.696 31.2297 105.777 31.1664 105.814L30.4334 106.239C30.3699 106.276 30.2887 106.254 30.2522 106.191Z" fill="white"/>
</g>
</g>
<mask id="mask19_2938_7304" style="mask-type:luminance" maskUnits="userSpaceOnUse" x="31" y="105" width="2" height="2">
<path d="M31.8486 105.57H32.8462V106.261H31.8486V105.57Z" fill="white"/>
</mask>
<g mask="url(#mask19_2938_7304)">
<g opacity="0.300003">
<path d="M32.8283 106.195C32.7918 106.258 32.711 106.279 32.648 106.243L31.9143 105.817C31.8513 105.78 31.8298 105.699 31.8666 105.636C31.9035 105.573 31.9842 105.551 32.0472 105.588L32.78 106.014C32.7802 106.014 32.7802 106.014 32.7804 106.014C32.8434 106.05 32.8649 106.131 32.8286 106.194C32.8286 106.194 32.8283 106.194 32.8283 106.195Z" fill="white"/>
</g>
</g>
<mask id="mask20_2938_7304" style="mask-type:luminance" maskUnits="userSpaceOnUse" x="30" y="104" width="2" height="2">
<path d="M30.2344 104.639H31.2325V105.33H30.2344V104.639Z" fill="white"/>
</mask>
<g mask="url(#mask20_2938_7304)">
<g opacity="0.300003">
<path d="M31.214 105.265C31.1772 105.327 31.0965 105.349 31.0334 105.312L30.3007 104.886H30.3002C30.2372 104.85 30.2157 104.769 30.2521 104.706C30.2886 104.642 30.3698 104.621 30.4333 104.657L31.1663 105.083H31.1666C31.2296 105.12 31.2513 105.2 31.2147 105.263C31.2145 105.264 31.2142 105.264 31.214 105.265Z" fill="white"/>
</g>
</g>
<path d="M31.5404 105.229C31.6632 105.229 31.7625 105.328 31.7625 105.451C31.7625 105.574 31.6632 105.673 31.5404 105.673C31.4177 105.673 31.3184 105.574 31.3184 105.451C31.3184 105.328 31.4177 105.229 31.5404 105.229Z" fill="#1A2E35"/>
<mask id="mask21_2938_7304" style="mask-type:luminance" maskUnits="userSpaceOnUse" x="52" y="98" width="4" height="3">
<path d="M52.2744 98.6136H55.164V100.375H52.2744V98.6136Z" fill="white"/>
</mask>
<g mask="url(#mask21_2938_7304)">
<g opacity="0.300003">
<path d="M55.0444 100.367C55.134 100.339 55.1843 100.244 55.1562 100.154C55.1251 99.5867 55.0045 99.0814 54.6566 98.7342C54.6332 98.6578 54.5601 98.608 54.4806 98.6141L52.4264 98.8083C52.3908 98.8121 52.3573 98.8272 52.3306 98.8513C52.2607 98.9143 52.2553 99.0219 52.3183 99.0918L52.9067 99.7259C52.927 99.7479 52.9529 99.7639 52.9815 99.7726L54.9478 100.369C54.9795 100.377 55.013 100.377 55.0444 100.367Z" fill="black"/>
</g>
</g>
<path d="M34.5676 99.1127C34.5428 99.2213 34.611 99.3294 34.7196 99.3542L36.0766 99.6657C36.1967 99.6935 36.3208 99.6999 36.4433 99.6843L36.8068 99.6392L37.2426 97.3078C36.3307 97.7989 35.4606 98.3639 34.6412 98.9976C34.6042 99.0261 34.578 99.0669 34.5676 99.1127Z" fill="black"/>
<path d="M43.3046 95.9774L42.501 98.9319L43.6366 98.7905L44.0732 95.996C43.8134 95.9871 43.5571 95.9807 43.3046 95.9774Z" fill="black"/>
<path d="M48.436 96.5941C48.4507 96.4411 48.3383 96.3052 48.1852 96.2906C47.8651 96.2575 47.5246 96.2259 47.1843 96.1952L47.0557 98.1394L47.0719 98.1234L48.3589 96.7614C48.4028 96.7161 48.4301 96.6571 48.436 96.5941Z" fill="black"/>
<path d="M36.7659 99.2173C36.4961 99.2173 36.2773 98.9983 36.2773 98.7285C36.2776 98.4991 36.4374 98.3004 36.6613 98.2511L37.3143 98.1062L37.4665 99.1993L36.7788 99.217C36.7746 99.2173 36.7701 99.2173 36.7659 99.2173Z" fill="#007CFF"/>
<mask id="mask22_2938_7304" style="mask-type:luminance" maskUnits="userSpaceOnUse" x="37" y="98" width="1" height="2">
<path d="M37.1289 98.1062H37.4678V99.2043H37.1289V98.1062Z" fill="white"/>
</mask>
<g mask="url(#mask22_2938_7304)">
<g opacity="0.300003">
<path d="M37.2771 99.2045L37.4678 99.1993L37.3153 98.1064L37.1289 98.1481L37.2771 99.2045Z" fill="black"/>
</g>
</g>
<mask id="mask23_2938_7304" style="mask-type:luminance" maskUnits="userSpaceOnUse" x="42" y="98" width="2" height="7">
<path d="M42.7031 98.5842H43.6129V104.372H42.7031V98.5842Z" fill="white"/>
</mask>
<g mask="url(#mask23_2938_7304)">
<g opacity="0.600006">
<path d="M43.5424 98.6137C43.5424 98.6137 43.6344 100.054 43.5424 100.514C43.4503 100.974 42.7324 104.342 42.7324 104.342" stroke="black" stroke-width="0.059" stroke-miterlimit="10" stroke-linecap="round" stroke-linejoin="round"/>
</g>
</g>
<mask id="mask24_2938_7304" style="mask-type:luminance" maskUnits="userSpaceOnUse" x="34" y="99" width="3" height="6">
<path d="M34.5381 99.1748H36.3504V104.873H34.5381V99.1748Z" fill="white"/>
</mask>
<g mask="url(#mask24_2938_7304)">
<g opacity="0.600006">
<path d="M34.5674 99.2044C34.5674 99.2044 34.7522 102.315 35.0788 102.904C35.3974 103.478 36.3206 104.844 36.3206 104.844" stroke="black" stroke-width="0.059" stroke-miterlimit="10" stroke-linecap="round" stroke-linejoin="round"/>
</g>
</g>
<mask id="mask25_2938_7304" style="mask-type:luminance" maskUnits="userSpaceOnUse" x="27" y="99" width="7" height="2">
<path d="M27.2998 99.0962H33.817V100.745H27.2998V99.0962Z" fill="white"/>
</mask>
<g mask="url(#mask25_2938_7304)">
<g opacity="0.600006">
<path d="M33.7872 99.1257C33.7872 99.1257 31.4921 99.6928 30.8167 99.8008C30.2623 99.8898 28.0076 100.438 27.3291 100.716" stroke="black" stroke-width="0.059" stroke-miterlimit="10" stroke-linecap="round" stroke-linejoin="round"/>
</g>
</g>
<path d="M49.8637 89.3893H33.9004V87.8048H49.8637V89.3893Z" fill="#1A2E35"/>
<mask id="mask26_2938_7304" style="mask-type:luminance" maskUnits="userSpaceOnUse" x="33" y="87" width="17" height="3">
<path d="M33.9023 87.8049H49.8656V89.3894H33.9023V87.8049Z" fill="white"/>
</mask>
<g mask="url(#mask26_2938_7304)">
<g opacity="0.699997">
<path d="M49.8656 89.3894H33.9023V87.8049H49.8656V89.3894Z" fill="white"/>
</g>
</g>
<path d="M49.6073 113.983H35.3926V112.398H49.6073V113.983Z" fill="#1A2E35"/>
<mask id="mask27_2938_7304" style="mask-type:luminance" maskUnits="userSpaceOnUse" x="35" y="112" width="15" height="2">
<path d="M35.3975 112.398H49.6122V113.983H35.3975V112.398Z" fill="white"/>
</mask>
<g mask="url(#mask27_2938_7304)">
<g opacity="0.699997">
<path d="M49.6122 113.983H35.3975V112.398H49.6122V113.983Z" fill="white"/>
</g>
</g>
<path d="M39.668 117.263H35.3926V115.678H39.668V117.263Z" fill="#1A2E35"/>
<mask id="mask28_2938_7304" style="mask-type:luminance" maskUnits="userSpaceOnUse" x="35" y="115" width="5" height="3">
<path d="M35.3975 115.678H39.6728V117.263H35.3975V115.678Z" fill="white"/>
</mask>
<g mask="url(#mask28_2938_7304)">
<g opacity="0.699997">
<path d="M39.6728 117.263H35.3975V115.678H39.6728V117.263Z" fill="white"/>
</g>
</g>
<path d="M54.0274 129.686H29.292V121.927H54.0274V129.686Z" fill="#007CFF"/>
<mask id="mask29_2938_7304" style="mask-type:luminance" maskUnits="userSpaceOnUse" x="51" y="121" width="4" height="9">
<path d="M51.6943 121.927H54.0296V129.686H51.6943V121.927Z" fill="white"/>
</mask>
<g mask="url(#mask29_2938_7304)">
<g opacity="0.300003">
<path d="M54.0296 129.686H51.6943V121.927H54.0296V129.686Z" fill="black"/>
</g>
</g>
</g>
<mask id="mask30_2938_7304" style="mask-type:luminance" maskUnits="userSpaceOnUse" x="11" y="41" width="177" height="118">
<path d="M11 41H188V159H11V41Z" fill="white"/>
</mask>
<g mask="url(#mask30_2938_7304)">
<path d="M31.5531 114.327C32.0541 114.327 32.4576 113.91 32.4343 113.403C32.4138 112.954 32.0439 112.584 31.5946 112.564C31.0886 112.541 30.6709 112.944 30.6709 113.445C30.6718 113.932 31.0664 114.326 31.5531 114.326V114.327ZM30.2093 112.101C30.9652 111.373 32.1683 111.396 32.8961 112.152C33.6044 112.887 33.6046 114.051 32.8966 114.787L31.823 115.861C31.6741 116.01 31.4325 116.01 31.2833 115.861L30.2093 114.787C29.468 114.045 29.468 112.843 30.2093 112.101Z" fill="#1A2E35"/>
<mask id="mask31_2938_7304" style="mask-type:luminance" maskUnits="userSpaceOnUse" x="29" y="111" width="5" height="5">
<path d="M29.6523 111.569H33.4266V115.973H29.6523V111.569Z" fill="white"/>
</mask>
<g mask="url(#mask31_2938_7304)">
<g opacity="0.699997">
<path d="M31.5521 114.327C32.0531 114.327 32.4567 113.91 32.4333 113.404C32.4128 112.954 32.043 112.585 31.5936 112.564C31.0876 112.541 30.6699 112.944 30.6699 113.445C30.6709 113.932 31.0655 114.326 31.5521 114.326V114.327ZM30.2083 112.101C30.9642 111.373 32.1673 111.396 32.8952 112.152C33.6034 112.888 33.6036 114.052 32.8956 114.787L31.8221 115.861C31.6732 116.01 31.4315 116.01 31.2823 115.861L30.2083 114.787C29.467 114.045 29.467 112.843 30.2083 112.101Z" fill="white"/>
</g>
</g>
<mask id="mask32_2938_7304" style="mask-type:luminance" maskUnits="userSpaceOnUse" x="26" y="100" width="3" height="2">
<path d="M26.3564 100.716H28.5143V101.785H26.3564V100.716Z" fill="white"/>
</mask>
<g mask="url(#mask32_2938_7304)">
<path d="M28.5143 100.844L27.3331 100.716L26.6546 100.993C26.5118 101.052 26.4052 101.174 26.3672 101.324C26.345 101.41 26.3575 101.502 26.4021 101.579L26.4141 101.599C26.4899 101.73 26.6372 101.802 26.7868 101.782L27.4679 101.688C27.5342 101.678 27.5972 101.652 27.6508 101.612L28.4367 101.016L28.5143 100.844Z" fill="white"/>
</g>
</g>
<mask id="mask33_2938_7304" style="mask-type:luminance" maskUnits="userSpaceOnUse" x="11" y="41" width="177" height="118">
<path d="M11 41H188V159H11V41Z" fill="white"/>
</mask>
<g mask="url(#mask33_2938_7304)">
<path d="M102.361 83.5449C104.179 85.6269 103.965 88.7886 101.883 90.6067C99.801 92.4249 96.6393 92.211 94.8211 90.1291C93.003 88.0471 93.2168 84.8854 95.2988 83.0672C97.3808 81.2491 100.542 81.4629 102.361 83.5449Z" fill="#007CFF"/>
<path d="M100.556 90.2313L100.21 91.4726L101.645 92.2368L101.819 90.6476L100.556 90.2313Z" fill="#007CFF"/>
<path d="M102.659 82.3762C103.981 83.3256 104.769 84.9722 104.68 86.597" stroke="#007CFF" stroke-width="0.118" stroke-miterlimit="10" stroke-linecap="round" stroke-linejoin="round"/>
<path d="M104.611 87.3407C104.616 87.589 104.569 87.838 104.474 88.0671" stroke="#007CFF" stroke-width="0.118" stroke-miterlimit="10" stroke-linecap="round" stroke-linejoin="round"/>
<path d="M98.4988 88.9457L95.9785 87.2599L96.5669 86.3806L98.2569 87.5108L100.359 84.7281L101.204 85.366L98.4988 88.9457Z" fill="white"/>
</g>
<path d="M175.053 135.918L58.3252 138.654V118.69H176.176L175.053 135.918Z" fill="#1A2E35"/>
<mask id="mask34_2938_7304" style="mask-type:luminance" maskUnits="userSpaceOnUse" x="11" y="41" width="177" height="118">
<path d="M11 41H188V159H11V41Z" fill="white"/>
</mask>
<g mask="url(#mask34_2938_7304)">
<mask id="mask35_2938_7304" style="mask-type:luminance" maskUnits="userSpaceOnUse" x="58" y="118" width="119" height="21">
<path d="M58.3301 118.69H176.181V138.654H58.3301V118.69Z" fill="white"/>
</mask>
<g mask="url(#mask35_2938_7304)">
<g opacity="0.5">
<path d="M175.058 135.918L58.3301 138.654V118.69H176.181L175.058 135.918Z" fill="black"/>
</g>
</g>
<path d="M53.8359 123.812V133.937C53.8352 136.106 55.2486 138.022 57.3212 138.662L58.1462 138.913C58.6543 139.07 59.1846 139.144 59.7164 139.131L65.1679 139.004C64.5204 136.738 64.4635 134.344 65.0025 132.05C66.747 124.625 74.1806 120.02 81.6058 121.764C89.0311 123.509 93.6362 130.942 91.8916 138.368L147.363 137.048C147.273 136.4 147.23 135.747 147.232 135.092C147.266 127.465 153.476 121.309 161.103 121.342C168.731 121.375 174.887 127.586 174.854 135.213C174.854 135.482 174.832 135.747 174.832 136.012C174.904 135.983 174.981 135.954 175.054 135.918L176.951 135.071C178.822 134.226 180.025 132.363 180.025 130.31V109.689C180.026 107.749 178.951 105.969 177.234 105.066L162.976 97.568C162.813 97.4811 162.688 97.3369 162.624 97.1635C162.481 96.7733 162.681 96.341 163.071 96.1977L164.815 95.5728C164.962 95.5225 165.067 95.3935 165.087 95.2401C165.116 95.017 164.958 94.8129 164.735 94.7841C157.961 93.8392 131.612 90.3938 117.761 92.0873C101.784 94.0426 86.4726 107.908 86.4726 107.908C74.7156 107.468 63.7397 111.56 59.015 113.614C57.4897 114.28 56.3163 115.558 55.7839 117.135L54.1666 121.926C53.9549 122.532 53.8433 123.169 53.8359 123.812Z" fill="#007CFF"/>
<path d="M147.376 137.048C147.296 136.44 147.256 135.827 147.256 135.213C147.256 134.9 147.267 134.592 147.285 134.283L137.254 130.179C136.667 129.94 136.034 129.837 135.401 129.878L100.511 132.167C99.9405 132.203 99.3837 132.357 98.8754 132.618L92.2464 136.027C92.199 136.815 92.0859 137.598 91.9082 138.368L147.376 137.048Z" fill="#1A2E35"/>
<path d="M180.028 130.31V129.783L174.354 131.52C174.685 132.723 174.853 133.965 174.852 135.213C174.852 135.482 174.831 135.747 174.831 136.012C174.903 135.983 174.979 135.954 175.052 135.918L176.953 135.071C178.824 134.226 180.027 132.363 180.028 130.31Z" fill="#1A2E35"/>
<path d="M55.4473 137.572C55.9886 138.073 56.6358 138.445 57.3407 138.662L58.1657 138.913C58.6739 139.07 59.2041 139.144 59.7359 139.131L65.1875 139.004C64.9899 138.315 64.8479 137.611 64.7622 136.899L55.4473 137.572Z" fill="#1A2E35"/>
<path d="M161.078 120.105C160.451 120.105 159.824 120.144 159.202 120.221C150.924 121.255 145.052 128.803 146.086 137.081L147.394 137.048C147.304 136.4 147.261 135.747 147.264 135.093C147.297 127.465 153.507 121.309 161.134 121.342C168.762 121.375 174.918 127.586 174.885 135.213C174.885 135.482 174.863 135.747 174.863 136.012C174.936 135.983 175.012 135.954 175.085 135.918L176.175 135.424V135.213C176.165 126.872 169.404 120.113 161.063 120.105H161.078Z" fill="#1A2E35"/>
<path d="M78.4663 120.105C77.1761 120.105 75.891 120.27 74.6426 120.596C66.5697 122.705 61.7355 130.96 63.8451 139.033L65.1863 139.004C64.5387 136.738 64.4819 134.344 65.0206 132.05C66.7654 124.625 74.1989 120.02 81.6242 121.764C89.0492 123.509 93.6543 130.942 91.9098 138.368L93.2472 138.335C93.4648 137.306 93.5745 136.257 93.5743 135.206C93.5724 126.864 86.8082 120.103 78.4663 120.105Z" fill="#1A2E35"/>
<path d="M91.6137 108.488C91.4523 108.625 91.3373 108.822 91.2892 109.044C91.1747 109.571 91.4563 110.102 91.9181 110.23L97.6843 111.846C98.1952 111.991 98.7248 112.031 99.249 111.964L142.003 106.667C143.044 106.535 144.014 105.997 144.748 105.144L150.357 98.6099C150.544 98.3939 150.662 98.1133 150.693 97.8127C150.77 97.069 150.303 96.3983 149.652 96.3143C139.414 94.9568 126.469 93.7225 118.295 94.7213C107.582 96.0285 96.7967 104.081 91.6137 108.488Z" fill="#007CFF"/>
<mask id="mask36_2938_7304" style="mask-type:luminance" maskUnits="userSpaceOnUse" x="91" y="94" width="60" height="18">
<path d="M91.4512 94.3577H150.889V111.996H91.4512V94.3577Z" fill="white"/>
</mask>
<g mask="url(#mask36_2938_7304)">
<g opacity="0.800003">
<path d="M91.8012 108.488C91.6398 108.625 91.5248 108.822 91.4767 109.044C91.3622 109.571 91.6438 110.102 92.1056 110.23L97.8718 111.846C98.3827 111.991 98.9123 112.031 99.4365 111.964L141.234 109.099C142.274 108.967 143.882 107.055 145.02 105.503L150.545 98.6099C150.731 98.3939 150.85 98.1133 150.881 97.8127C150.957 97.069 150.491 96.3983 149.839 96.3143C139.601 94.9568 126.656 93.7225 118.483 94.7213C107.77 96.0285 96.9842 104.081 91.8012 108.488Z" fill="white"/>
</g>
</g>
<mask id="mask37_2938_7304" style="mask-type:luminance" maskUnits="userSpaceOnUse" x="119" y="111" width="7" height="2">
<path d="M119.388 111.087H125.858V112.593H119.388V111.087Z" fill="white"/>
</mask>
<g mask="url(#mask37_2938_7304)">
<g opacity="0.300003">
<path d="M119.736 112.562C119.462 112.463 119.32 112.161 119.419 111.887C119.54 111.548 119.855 111.317 120.215 111.302L125.303 111.088C125.372 111.085 125.441 111.095 125.505 111.118C125.781 111.217 125.925 111.521 125.826 111.796C125.703 112.136 125.387 112.367 125.027 112.382L119.939 112.592C119.87 112.596 119.801 112.585 119.736 112.562Z" fill="black"/>
</g>
</g>
<path d="M157.575 97.984C157.125 98.3843 157.084 99.0734 157.485 99.5232L158.691 100.835C158.83 100.982 159.006 101.089 159.2 101.144L173.981 105.244C174.238 105.313 174.503 105.349 174.77 105.349H177.706C177.554 105.247 177.397 105.153 177.234 105.066L162.976 97.5607L162.975 97.5604C162.616 97.3825 162.468 96.9466 162.645 96.5867L158.015 97.7462C157.852 97.7903 157.701 97.8717 157.575 97.984Z" fill="#007CFF"/>
<mask id="mask38_2938_7304" style="mask-type:luminance" maskUnits="userSpaceOnUse" x="56" y="114" width="10" height="6">
<path d="M56.3184 114.994H65.5318V119.559H56.3184V114.994Z" fill="white"/>
</mask>
<g mask="url(#mask38_2938_7304)">
<path d="M65.5316 115.543L60.4883 114.994L57.5909 116.179C56.9816 116.428 56.5266 116.951 56.3644 117.589C56.2693 117.958 56.3227 118.35 56.5133 118.68L56.5643 118.767C56.8884 119.325 57.5168 119.632 58.1561 119.545L61.0637 119.145C61.3471 119.104 61.6159 118.993 61.8451 118.822L65.1996 116.277L65.5316 115.543Z" fill="white"/>
</g>
<path d="M86.4844 107.901L87.2875 108.13C87.9117 108.308 88.5836 108.163 89.0794 107.744C93.7532 103.79 101.88 97.7244 110.649 94.8969C110.688 94.8841 110.721 94.8572 110.741 94.8216C110.785 94.7428 110.757 94.6432 110.678 94.5988L109.588 94.0392C96.9368 98.4258 86.4844 107.901 86.4844 107.901Z" fill="#007CFF"/>
<mask id="mask39_2938_7304" style="mask-type:luminance" maskUnits="userSpaceOnUse" x="86" y="94" width="25" height="15">
<path d="M86.4854 94.039H110.763V108.204H86.4854V94.039Z" fill="white"/>
</mask>
<g mask="url(#mask39_2938_7304)">
<g opacity="0.800003">
<path d="M86.4854 107.901L87.2885 108.129C87.9127 108.308 88.5846 108.163 89.0804 107.744C93.7542 103.79 101.881 97.7243 110.65 94.8967C110.689 94.884 110.722 94.8571 110.742 94.8215C110.786 94.7426 110.758 94.643 110.679 94.5987L109.589 94.0391C96.9378 98.4256 86.4854 107.901 86.4854 107.901Z" fill="white"/>
</g>
</g>
<mask id="mask40_2938_7304" style="mask-type:luminance" maskUnits="userSpaceOnUse" x="91" y="113" width="61" height="19">
<path d="M91.9102 113.24H151.434V131.319H91.9102V113.24Z" fill="white"/>
</mask>
<g mask="url(#mask40_2938_7304)">
<g opacity="0.199997">
<path d="M134.414 113.239L91.9102 116.279L92.71 121.521C92.9552 123.127 93.5504 124.659 94.4538 126.009L98.0063 131.319L134.283 126.414L151.434 113.239H134.414Z" fill="white"/>
</g>
</g>
<path d="M169.202 143.348C164.709 147.841 157.423 147.841 152.93 143.348C148.436 138.854 148.436 131.569 152.93 127.075C157.423 122.582 164.709 122.582 169.202 127.075C173.696 131.569 173.696 138.854 169.202 143.348Z" fill="#1A2E35"/>
<mask id="mask41_2938_7304" style="mask-type:luminance" maskUnits="userSpaceOnUse" x="154" y="128" width="15" height="15">
<path d="M154.018 128.157H168.126V142.266H154.018V128.157Z" fill="white"/>
</mask>
<g mask="url(#mask41_2938_7304)">
<g opacity="0.399994">
<path d="M166.06 140.2C163.305 142.955 158.839 142.955 156.084 140.2C153.329 137.445 153.329 132.979 156.084 130.224C158.839 127.469 163.305 127.469 166.06 130.224C168.815 132.979 168.815 137.445 166.06 140.2Z" fill="white"/>
</g>
</g>
<mask id="mask42_2938_7304" style="mask-type:luminance" maskUnits="userSpaceOnUse" x="160" y="128" width="2" height="6">
<path d="M160.506 128.867H161.636V133.61H160.506V128.867Z" fill="white"/>
</mask>
<g mask="url(#mask42_2938_7304)">
<g opacity="0.300003">
<path d="M161.636 129.431V133.047C161.636 133.358 161.384 133.61 161.073 133.61H161.069C160.758 133.61 160.506 133.358 160.506 133.047V129.431C160.506 129.12 160.758 128.867 161.069 128.867H161.073C161.384 128.867 161.636 129.12 161.636 129.431Z" fill="white"/>
</g>
</g>
<mask id="mask43_2938_7304" style="mask-type:luminance" maskUnits="userSpaceOnUse" x="160" y="136" width="2" height="6">
<path d="M160.506 136.815H161.636V141.558H160.506V136.815Z" fill="white"/>
</mask>
<g mask="url(#mask43_2938_7304)">
<g opacity="0.300003">
<path d="M161.636 137.379V140.995C161.636 141.306 161.384 141.558 161.073 141.558H161.069C160.758 141.558 160.506 141.306 160.506 140.995V137.379C160.506 137.068 160.758 136.815 161.069 136.815H161.073C161.384 136.815 161.636 137.068 161.636 137.379Z" fill="white"/>
</g>
</g>
<mask id="mask44_2938_7304" style="mask-type:luminance" maskUnits="userSpaceOnUse" x="162" y="131" width="5" height="4">
<path d="M162.378 131.746H166.638V134.694H162.378V131.746Z" fill="white"/>
</mask>
<g mask="url(#mask44_2938_7304)">
<g opacity="0.300003">
<path d="M163.222 134.62C162.952 134.774 162.608 134.68 162.454 134.41C162.453 134.409 162.453 134.409 162.453 134.408C162.298 134.139 162.391 133.794 162.661 133.639L165.79 131.822C166.061 131.666 166.408 131.759 166.564 132.029C166.718 132.3 166.626 132.643 166.357 132.8L163.228 134.617C163.226 134.618 163.224 134.619 163.222 134.62Z" fill="white"/>
</g>
</g>
<mask id="mask45_2938_7304" style="mask-type:luminance" maskUnits="userSpaceOnUse" x="155" y="135" width="5" height="4">
<path d="M155.496 135.707H159.756V138.654H155.496V135.707Z" fill="white"/>
</mask>
<g mask="url(#mask45_2938_7304)">
<g opacity="0.300003">
<path d="M156.341 138.579C156.071 138.734 155.727 138.641 155.572 138.371C155.572 138.371 155.571 138.37 155.571 138.37C155.416 138.1 155.509 137.756 155.779 137.601L158.908 135.784L158.909 135.783C159.177 135.627 159.522 135.718 159.679 135.987C159.836 136.257 159.745 136.603 159.475 136.761L156.342 138.578C156.342 138.579 156.341 138.579 156.341 138.579Z" fill="white"/>
</g>
</g>
<mask id="mask46_2938_7304" style="mask-type:luminance" maskUnits="userSpaceOnUse" x="162" y="135" width="5" height="4">
<path d="M162.38 135.721H166.641V138.669H162.38V135.721Z" fill="white"/>
</mask>
<g mask="url(#mask46_2938_7304)">
<g opacity="0.300003">
<path d="M165.792 138.593L162.663 136.776C162.392 136.619 162.299 136.273 162.456 136.002C162.614 135.732 162.96 135.641 163.23 135.798L166.359 137.615C166.628 137.772 166.72 138.115 166.566 138.386C166.41 138.657 166.063 138.749 165.792 138.593Z" fill="white"/>
</g>
</g>
<mask id="mask47_2938_7304" style="mask-type:luminance" maskUnits="userSpaceOnUse" x="155" y="131" width="5" height="4">
<path d="M155.496 131.746H159.755V134.693H155.496V131.746Z" fill="white"/>
</mask>
<g mask="url(#mask47_2938_7304)">
<g opacity="0.300003">
<path d="M159.678 134.411C159.522 134.681 159.177 134.773 158.908 134.617L155.779 132.8C155.778 132.8 155.778 132.799 155.777 132.799C155.508 132.643 155.416 132.299 155.572 132.029C155.572 132.029 155.572 132.028 155.573 132.028C155.728 131.759 156.073 131.666 156.342 131.822L159.475 133.639L159.475 133.64C159.744 133.796 159.835 134.141 159.679 134.41C159.678 134.41 159.678 134.411 159.678 134.411Z" fill="white"/>
</g>
</g>
<path d="M160.12 135.209C160.12 134.688 160.543 134.264 161.065 134.264H161.069C161.593 134.264 162.017 134.689 162.017 135.213C162.017 135.737 161.593 136.162 161.069 136.162C160.545 136.162 160.12 135.737 160.12 135.213V135.209Z" fill="#1A2E35"/>
<path d="M86.6027 143.35C82.1093 147.843 74.8237 147.843 70.33 143.35C65.8366 138.857 65.8366 131.571 70.33 127.077C74.8237 122.584 82.1093 122.584 86.6027 127.077C91.0962 131.571 91.0962 138.857 86.6027 143.35Z" fill="#1A2E35"/>
<mask id="mask48_2938_7304" style="mask-type:luminance" maskUnits="userSpaceOnUse" x="71" y="128" width="15" height="15">
<path d="M71.4121 128.159H85.5207V142.268H71.4121V128.159Z" fill="white"/>
</mask>
<g mask="url(#mask48_2938_7304)">
<g opacity="0.399994">
<path d="M83.4547 140.202C80.6998 142.957 76.2333 142.957 73.4782 140.202C70.7234 137.447 70.7234 132.98 73.4782 130.225C76.2333 127.47 80.6998 127.47 83.4547 130.225C86.2095 132.98 86.2095 137.447 83.4547 140.202Z" fill="white"/>
</g>
</g>
<mask id="mask49_2938_7304" style="mask-type:luminance" maskUnits="userSpaceOnUse" x="77" y="128" width="3" height="6">
<path d="M77.9053 128.867H79.0357V133.61H77.9053V128.867Z" fill="white"/>
</mask>
<g mask="url(#mask49_2938_7304)">
<g opacity="0.300003">
<path d="M79.0335 129.431V133.047C79.0335 133.358 78.7812 133.61 78.4702 133.61H78.4667C78.1554 133.61 77.9033 133.358 77.9033 133.047V129.431C77.9033 129.12 78.1554 128.867 78.4667 128.867H78.4702C78.7812 128.867 79.0335 129.12 79.0335 129.431Z" fill="white"/>
</g>
</g>
<mask id="mask50_2938_7304" style="mask-type:luminance" maskUnits="userSpaceOnUse" x="77" y="136" width="3" height="6">
<path d="M77.9053 136.815H79.0357V141.558H77.9053V136.815Z" fill="white"/>
</mask>
<g mask="url(#mask50_2938_7304)">
<g opacity="0.300003">
<path d="M79.0335 137.379V140.995C79.0335 141.306 78.7812 141.558 78.4702 141.558H78.4667C78.1554 141.558 77.9033 141.306 77.9033 140.995V137.379C77.9033 137.068 78.1554 136.815 78.4667 136.815H78.4702C78.7812 136.815 79.0335 137.068 79.0335 137.379Z" fill="white"/>
</g>
</g>
<mask id="mask51_2938_7304" style="mask-type:luminance" maskUnits="userSpaceOnUse" x="79" y="131" width="6" height="4">
<path d="M79.7754 131.746H84.0345V134.694H79.7754V131.746Z" fill="white"/>
</mask>
<g mask="url(#mask51_2938_7304)">
<g opacity="0.300003">
<path d="M80.6147 134.622C80.3457 134.774 80.0042 134.679 79.852 134.41L79.8518 134.41C79.6955 134.141 79.7866 133.796 80.0557 133.64L83.1883 131.822C83.1888 131.822 83.1893 131.822 83.1897 131.821C83.4597 131.667 83.804 131.76 83.9589 132.029C83.9591 132.03 83.9593 132.03 83.9598 132.031C84.1146 132.301 84.0214 132.645 83.7517 132.8L80.6225 134.617C80.6199 134.619 80.6173 134.62 80.6147 134.622Z" fill="white"/>
</g>
</g>
<mask id="mask52_2938_7304" style="mask-type:luminance" maskUnits="userSpaceOnUse" x="72" y="135" width="6" height="4">
<path d="M72.8926 135.707H77.1547V138.654H72.8926V135.707Z" fill="white"/>
</mask>
<g mask="url(#mask52_2938_7304)">
<g opacity="0.300003">
<path d="M72.9683 138.371C72.9681 138.371 72.9679 138.37 72.9674 138.37C72.8126 138.1 72.9058 137.756 73.1755 137.601L76.3047 135.784C76.5746 135.627 76.9209 135.718 77.0787 135.987C77.2352 136.258 77.1425 136.605 76.8715 136.761L73.7424 138.578C73.4715 138.735 73.125 138.642 72.9683 138.371Z" fill="white"/>
</g>
</g>
<mask id="mask53_2938_7304" style="mask-type:luminance" maskUnits="userSpaceOnUse" x="79" y="135" width="6" height="4">
<path d="M79.7773 135.722H84.0367V138.669H79.7773V135.722Z" fill="white"/>
</mask>
<g mask="url(#mask53_2938_7304)">
<g opacity="0.300003">
<path d="M83.9603 138.387C83.8045 138.657 83.46 138.749 83.1907 138.593L80.0578 136.776C79.7883 136.618 79.6972 136.272 79.8544 136.002V136.001C80.0111 135.733 80.3559 135.642 80.6247 135.798L83.754 137.615C83.7545 137.616 83.755 137.616 83.7554 137.616C84.0247 137.772 84.1167 138.117 83.9612 138.386C83.9608 138.386 83.9605 138.387 83.9603 138.387Z" fill="white"/>
</g>
</g>
<mask id="mask54_2938_7304" style="mask-type:luminance" maskUnits="userSpaceOnUse" x="72" y="131" width="6" height="4">
<path d="M72.8926 131.746H77.1545V134.695H72.8926V131.746Z" fill="white"/>
</mask>
<g mask="url(#mask54_2938_7304)">
<g opacity="0.300003">
<path d="M77.0755 134.416C76.9183 134.684 76.573 134.774 76.3047 134.617L73.1756 132.8C73.1751 132.8 73.1746 132.799 73.1741 132.799C72.9046 132.643 72.8126 132.299 72.9684 132.029C73.1251 131.759 73.4715 131.666 73.7424 131.822L76.8716 133.639C76.872 133.64 76.8725 133.64 76.873 133.64C77.1425 133.796 77.2345 134.14 77.0788 134.41C77.0776 134.412 77.0766 134.414 77.0755 134.416Z" fill="white"/>
</g>
</g>
<path d="M78.4661 134.264C78.99 134.264 79.4145 134.689 79.4145 135.213C79.4145 135.737 78.99 136.162 78.4661 136.162C77.9421 136.162 77.5176 135.737 77.5176 135.213C77.5176 134.689 77.9421 134.264 78.4661 134.264Z" fill="#1A2E35"/>
<mask id="mask55_2938_7304" style="mask-type:luminance" maskUnits="userSpaceOnUse" x="166" y="106" width="14" height="8">
<path d="M166.996 106.018H179.334V113.538H166.996V106.018Z" fill="white"/>
</mask>
<g mask="url(#mask55_2938_7304)">
<g opacity="0.300003">
<path d="M178.823 113.505C179.206 113.386 179.42 112.978 179.301 112.595C179.167 110.173 178.652 108.016 177.168 106.533C177.068 106.207 176.755 105.994 176.415 106.02L167.645 106.849C167.493 106.865 167.349 106.93 167.236 107.033C166.938 107.302 166.915 107.762 167.184 108.059L169.695 110.767C169.782 110.861 169.893 110.93 170.015 110.967L178.411 113.511C178.546 113.549 178.689 113.547 178.823 113.505Z" fill="black"/>
</g>
</g>
<path d="M91.2892 109.04C91.1747 109.567 91.4563 110.098 91.9181 110.226L97.6843 111.842C98.1952 111.987 98.6226 112.086 99.287 112.116L101.103 111.995L99.3903 102.745C95.4357 105.343 95.1648 105.461 91.6137 108.484C91.4523 108.621 91.3376 108.817 91.2892 109.04Z" fill="#1A2E35"/>
<path d="M128.852 94.4224L125.229 110.218L129.968 109.877L132.132 94.5702C131.023 94.5069 129.93 94.4576 128.852 94.4224Z" fill="#1A2E35"/>
<path d="M143.887 106.923L150.542 98.61C150.734 98.3922 150.855 98.1071 150.885 97.8012C150.96 97.0576 150.492 96.3881 149.84 96.3062C148.477 96.1209 147.026 95.9427 145.575 95.7686" fill="#1A2E35"/>
<path d="M96.5316 110.646C95.3794 110.659 94.4345 109.736 94.421 108.584C94.4097 107.605 95.0809 106.749 96.035 106.526L98.8151 105.874L99.5222 110.532L96.5868 110.644C96.5684 110.645 96.55 110.645 96.5316 110.646Z" fill="#007CFF"/>
<mask id="mask56_2938_7304" style="mask-type:luminance" maskUnits="userSpaceOnUse" x="98" y="105" width="2" height="6">
<path d="M98.0215 105.874H99.5224V110.564H98.0215V105.874Z" fill="white"/>
</mask>
<g mask="url(#mask56_2938_7304)">
<g opacity="0.300003">
<path d="M98.7087 110.564L99.5224 110.532L98.8152 105.874L98.0215 106.062L98.7087 110.564Z" fill="black"/>
</g>
</g>
<mask id="mask57_2938_7304" style="mask-type:luminance" maskUnits="userSpaceOnUse" x="126" y="109" width="4" height="22">
<path d="M126.192 109.82H129.943V130.537H126.192V109.82Z" fill="white"/>
</mask>
<g mask="url(#mask57_2938_7304)">
<g opacity="0.600006">
<path d="M129.869 109.879C129.903 111.516 129.886 113.248 129.709 114.132C129.316 116.098 126.251 130.478 126.251 130.478" stroke="black" stroke-width="0.118" stroke-miterlimit="10" stroke-linecap="round" stroke-linejoin="round"/>
</g>
</g>
<mask id="mask58_2938_7304" style="mask-type:luminance" maskUnits="userSpaceOnUse" x="91" y="109" width="8" height="24">
<path d="M91.2041 109.328H98.9357V132.677H91.2041V109.328Z" fill="white"/>
</mask>
<g mask="url(#mask58_2938_7304)">
<g opacity="0.600006">
<path d="M91.2637 109.387C91.2637 109.387 92.1798 121.821 93.5746 124.336C94.9349 126.789 98.8773 132.618 98.8773 132.618" stroke="black" stroke-width="0.118" stroke-miterlimit="10" stroke-linecap="round" stroke-linejoin="round"/>
</g>
</g>
<mask id="mask59_2938_7304" style="mask-type:luminance" maskUnits="userSpaceOnUse" x="60" y="108" width="29" height="8">
<path d="M60.4287 108.145H88.1212V115.053H60.4287V108.145Z" fill="white"/>
</mask>
<g mask="url(#mask59_2938_7304)">
<g opacity="0.600006">
<path d="M88.0618 108.204C88.0618 108.204 78.2624 110.625 75.3787 111.087C73.0111 111.467 63.3849 113.809 60.4873 114.994" stroke="black" stroke-width="0.118" stroke-miterlimit="10" stroke-linecap="round" stroke-linejoin="round"/>
</g>
</g>
<mask id="mask60_2938_7304" style="mask-type:luminance" maskUnits="userSpaceOnUse" x="157" y="96" width="21" height="10">
<path d="M157.207 96.5867H177.704V105.349H157.207V96.5867Z" fill="white"/>
</mask>
<g mask="url(#mask60_2938_7304)">
<g opacity="0.800003">
<path d="M157.573 97.984C157.123 98.3843 157.082 99.0734 157.483 99.5232L158.689 100.835C158.828 100.982 159.004 101.089 159.198 101.144L173.979 105.244C174.236 105.313 174.501 105.349 174.768 105.349H177.704C177.552 105.247 177.395 105.153 177.232 105.066L162.974 97.5607L162.973 97.5604C162.614 97.3825 162.466 96.9466 162.644 96.5867L158.013 97.7462C157.85 97.7903 157.699 97.8717 157.573 97.984Z" fill="white"/>
</g>
</g>
<path d="M108.62 104.242C108.62 104.242 110.386 110.453 111.244 110.673C112.798 111.072 118.05 110.171 117.946 109.998L117.516 107.81C117.516 107.81 112.153 107.424 112.042 107.467L110.341 103.573L108.62 104.242Z" fill="#FE7259"/>
<path d="M110.353 104.673C110.353 104.673 110.888 104.174 110.903 103.57C110.918 102.965 111.09 102.486 111.07 102.036C111.05 101.585 110.673 102.063 110.524 102.358C110.375 102.652 110.203 102.985 110 102.837C109.797 102.689 108.912 100.718 108.607 100.545C108.302 100.372 108.345 100.736 108.345 100.736C108.345 100.736 108.118 100.263 107.906 100.302C107.85 100.312 107.739 100.425 107.809 100.657C107.966 101.179 108.353 102.256 108.353 102.256C108.332 102.194 107.76 100.898 107.649 100.715C107.504 100.476 107.313 100.437 107.177 100.526C106.984 100.652 107.639 102.283 107.618 102.371C107.618 102.371 107.273 101.42 106.978 101.374C106.684 101.329 106.869 101.94 107.134 102.448C107.378 102.913 107.733 103.89 108.026 104.339C108.387 104.893 108.754 105.183 109.367 105.089C109.98 104.995 110.353 104.673 110.353 104.673Z" fill="#FE7259"/>
<mask id="mask61_2938_7304" style="mask-type:luminance" maskUnits="userSpaceOnUse" x="108" y="100" width="1" height="2">
<path d="M108.356 100.762H108.881V101.995H108.356V100.762Z" fill="white"/>
</mask>
<g mask="url(#mask61_2938_7304)">
<g opacity="0.300003">
<path d="M108.386 100.792C108.559 101.176 108.714 101.567 108.852 101.965" stroke="black" stroke-width="0.059" stroke-miterlimit="10" stroke-linecap="round" stroke-linejoin="round"/>
</g>
</g>
<mask id="mask62_2938_7304" style="mask-type:luminance" maskUnits="userSpaceOnUse" x="107" y="102" width="3" height="1">
<path d="M107.711 102.096H109.253V102.775H107.711V102.096Z" fill="white"/>
</mask>
<g mask="url(#mask62_2938_7304)">
<g opacity="0.300003">
<path d="M107.741 102.745C108.161 102.4 108.684 102.181 109.225 102.126" stroke="black" stroke-width="0.059" stroke-miterlimit="10" stroke-linecap="round" stroke-linejoin="round"/>
</g>
</g>
<mask id="mask63_2938_7304" style="mask-type:luminance" maskUnits="userSpaceOnUse" x="109" y="103" width="1" height="2">
<path d="M109.4 103.044H109.899V104.271H109.4V103.044Z" fill="white"/>
</mask>
<g mask="url(#mask63_2938_7304)">
<g opacity="0.300003">
<path d="M109.869 103.073C109.683 103.193 109.541 103.38 109.474 103.591C109.407 103.802 109.416 104.037 109.5 104.242" stroke="black" stroke-width="0.059" stroke-miterlimit="10" stroke-linecap="round" stroke-linejoin="round"/>
</g>
</g>
<path d="M122.466 102.179C122.466 102.179 124.431 100.519 124.346 99.964C124.261 99.4091 123.946 99.5802 123.946 99.5802C123.946 99.5802 124.626 98.2409 123.956 98.0108C123.286 97.781 123.24 98.0061 123.24 98.0061C123.24 98.0061 123.505 96.9132 122.973 96.5847C122.569 96.3315 122.398 96.8346 122.398 96.8346C122.398 96.8346 121.626 95.6374 120.702 95.6548C120.246 95.6898 120.021 95.9841 120.086 96.3357C120.089 96.351 120.092 96.3661 120.096 96.381C120.096 96.381 118.232 95.5689 117.366 96.0789C116.5 96.5887 117.629 97.1478 117.629 97.1478C117.629 97.1478 115.813 96.9583 115.457 97.6889C115.175 98.2692 115.983 98.6603 115.983 98.6603C115.983 98.6603 115.696 98.7575 115.451 98.9789C114.984 99.4006 115.27 100.2 115.898 100.223C115.903 100.223 115.908 100.224 115.913 100.224C116.009 100.226 116.183 100.247 116.253 100.181C116.253 100.181 115.941 100.839 116.613 101.05C117.285 101.261 117.605 100.482 117.605 100.482L122.466 102.179Z" fill="#1A2E35"/>
<path d="M121.848 106.453C121.848 106.453 121.739 105.506 122.412 103.204C122.412 103.201 122.291 103.147 122.291 103.145C122.384 102.823 122.483 102.525 122.576 102.267C122.578 102.26 122.578 102.257 122.578 102.257L119.421 104.197C119.494 104.934 119.225 106.357 119.066 106.958L119.884 108.342L121.848 106.453Z" fill="#FE7259"/>
<mask id="mask64_2938_7304" style="mask-type:luminance" maskUnits="userSpaceOnUse" x="119" y="104" width="3" height="3">
<path d="M119.25 104.828H121.179V106.111H119.25V104.828Z" fill="white"/>
</mask>
<g mask="url(#mask64_2938_7304)">
<g opacity="0.199997">
<path d="M119.364 105.233L121.179 104.828C121.013 105.392 120.512 106.059 119.25 106.11C119.25 106.11 119.377 105.48 119.364 105.233Z" fill="black"/>
</g>
</g>
<path d="M117.256 98.7464C116.883 99.4744 116.748 101.078 117.91 100.746C119.072 100.415 117.897 97.4949 117.256 98.7464Z" fill="#1A2E35"/>
<path d="M122.605 100.726C122.388 102.724 122.305 103.855 121.244 104.826C119.647 106.286 117.27 105.277 116.885 103.249C116.539 101.424 116.953 98.4641 118.955 97.7785C120.926 97.1028 122.823 98.7291 122.605 100.726Z" fill="#FE7259"/>
<path d="M119.71 101.17C119.7 101.375 119.584 101.535 119.45 101.527C119.315 101.519 119.215 101.347 119.224 101.142C119.234 100.937 119.351 100.777 119.485 100.785C119.619 100.792 119.72 100.964 119.71 101.17Z" fill="#1A2E35"/>
<path d="M117.699 101.115C117.69 101.32 117.573 101.479 117.439 101.472C117.305 101.464 117.204 101.292 117.214 101.087C117.223 100.882 117.34 100.722 117.474 100.73C117.608 100.737 117.709 100.91 117.699 101.115Z" fill="#1A2E35"/>
<path d="M118.357 101.032C118.357 101.032 117.66 102.02 117.433 102.425C117.706 102.696 118.203 102.6 118.203 102.6L118.357 101.032Z" fill="#FF4F4D"/>
<path d="M120.207 100.069C120.175 100.078 120.138 100.069 120.113 100.043C119.812 99.7359 119.464 99.7991 119.46 99.7998C119.408 99.8098 119.357 99.7758 119.347 99.7239C119.336 99.6722 119.37 99.6219 119.422 99.6118C119.44 99.608 119.876 99.5287 120.25 99.9098C120.288 99.9478 120.287 100.008 120.249 100.045C120.237 100.057 120.222 100.065 120.207 100.069Z" fill="#1A2E35"/>
<path d="M116.844 100.189C116.826 100.183 116.81 100.173 116.798 100.157C116.764 100.116 116.771 100.055 116.811 100.022C117.222 99.687 117.642 99.8229 117.662 99.8264C117.712 99.8432 117.74 99.8975 117.724 99.948C117.708 99.9985 117.655 100.026 117.604 100.01C117.587 100.004 117.262 99.9031 116.933 100.172C116.907 100.193 116.873 100.198 116.844 100.189Z" fill="#1A2E35"/>
<path d="M118.788 103.939C118.782 103.942 118.806 103.935 118.788 103.939V103.939Z" fill="#1A2E35"/>
<path d="M118.476 103.164C118.798 103.062 119.392 102.847 119.68 102.545C119.68 102.545 119.732 102.633 119.762 102.766C119.789 102.881 119.803 103.027 119.765 103.179C119.694 103.456 119.451 103.755 118.8 103.935C118.791 103.938 118.79 103.939 118.788 103.939C118.785 103.94 118.786 103.94 118.781 103.941C118.781 103.941 118.43 104.031 118.255 103.229C118.255 103.229 118.341 103.208 118.476 103.164Z" fill="#1A2E35"/>
<path d="M118.475 103.164L118.599 103.381C119.211 103.209 119.62 103.006 119.76 102.766C119.73 102.633 119.679 102.545 119.679 102.545C119.391 102.847 118.797 103.062 118.475 103.164Z" fill="white"/>
<path d="M118.799 103.935C119.45 103.755 119.692 103.456 119.763 103.179C119.544 103.249 119.287 103.358 119.08 103.523C118.922 103.648 118.841 103.796 118.799 103.935Z" fill="#FF4F4D"/>
<path d="M122.006 102.273C121.833 102.179 121.65 102.076 121.556 101.903C121.469 101.742 121.474 101.548 121.49 101.365C121.507 101.176 121.534 100.987 121.571 100.801C121.393 100.89 121.178 100.748 121.08 100.574C120.934 100.314 120.944 99.9982 120.965 99.7008C120.738 99.7494 120.481 99.6819 120.331 99.504C120.182 99.326 120.168 99.0376 120.324 98.8654C119.586 98.9642 118.83 98.917 118.11 98.7271C118.16 98.8189 118.102 98.931 118.039 99.0138C117.781 99.3492 117.396 99.5845 116.98 99.6604C116.919 99.6715 116.843 99.6734 116.809 99.6215C116.791 99.5937 116.791 99.5583 116.793 99.5252C116.817 99.1198 117.051 98.7476 117.357 98.4812C117.664 98.2145 118.039 98.0408 118.418 97.8937C119.047 97.6495 119.704 97.4671 120.377 97.4215C121.05 97.3762 121.74 97.4723 122.348 97.7625C122.482 97.826 122.614 97.9013 122.707 98.0158C122.795 98.1243 122.842 98.2603 122.883 98.3941C123.131 99.2085 123.226 100.07 123.161 100.919" fill="#1A2E35"/>
<path d="M123.318 102.434C123.134 102.942 122.731 103.315 122.324 103.494C121.713 103.762 121.307 103.235 121.393 102.607C121.471 102.042 121.883 101.22 122.538 101.217C123.182 101.213 123.529 101.853 123.318 102.434Z" fill="#FE7259"/>
<mask id="mask65_2938_7304" style="mask-type:luminance" maskUnits="userSpaceOnUse" x="121" y="101" width="2" height="2">
<path d="M121.884 101.644H122.945V102.474H121.884V101.644Z" fill="white"/>
</mask>
<g mask="url(#mask65_2938_7304)">
<g opacity="0.199997">
<path d="M122.884 101.858C122.809 101.735 122.647 101.683 122.505 101.711C122.363 101.739 122.242 101.833 122.151 101.946C122.042 102.08 121.969 102.244 121.941 102.415" stroke="black" stroke-width="0.118" stroke-miterlimit="10" stroke-linecap="round" stroke-linejoin="round"/>
</g>
</g>
<path d="M118.914 109.712C118.914 109.712 113.046 111.427 110.914 111.502C108.783 111.576 104.065 110.582 104.065 110.582L104.332 108.417L111.256 108.77L118.784 106.256L118.914 109.712Z" fill="#FE7259"/>
<path d="M116.819 111.035L117.973 106.265L120.904 105.754C121.032 105.735 123.413 105.54 124.127 108.151L124.286 110.227L116.819 111.035Z" fill="#1A2E35"/>
<path d="M119.578 110.56C119.415 110.557 114.847 111.392 114.847 111.392L113.907 107.678C113.907 107.678 116.031 106.79 117.972 106.265C120.141 105.678 122.175 105.496 122.644 106.509C123.532 108.427 119.578 110.56 119.578 110.56Z" fill="#1A2E35"/>
<mask id="mask66_2938_7304" style="mask-type:luminance" maskUnits="userSpaceOnUse" x="110" y="107" width="5" height="2">
<path d="M110.117 107.517H114.7V108.805H110.117V107.517Z" fill="white"/>
</mask>
<g mask="url(#mask66_2938_7304)">
<g opacity="0.300003">
<path d="M110.118 108.747C110.229 108.752 111.257 108.805 111.257 108.805L114.218 107.79C114.218 107.79 114.832 107.526 114.676 107.579C114.52 107.633 113.293 107.506 113.211 107.518C113.13 107.531 110.118 108.747 110.118 108.747Z" fill="black"/>
</g>
</g>
<path d="M102.058 107.431C101.925 107.511 100.355 109.133 100.355 109.133L100.662 111.143L102.635 109.107L102.058 107.431Z" fill="#1A2E35"/>
<path d="M104.423 111.624C104.076 111.795 103.656 111.653 103.485 111.306L100.354 104.963C100.182 104.616 100.325 104.196 100.672 104.025C101.019 103.853 101.439 103.996 101.61 104.343L104.741 110.686C104.912 111.033 104.77 111.453 104.423 111.624Z" fill="#1A2E35"/>
<path d="M106.679 108.59L104.102 108.244L103.357 107.342C103.357 107.342 102.048 107.225 101.766 107.458C101.485 107.691 101.202 108.435 101.202 108.435C101.202 108.435 100.861 109.045 101.446 109.365C101.446 109.365 101.076 109.907 101.736 110.29C101.736 110.29 101.249 110.565 101.947 110.852C102.645 111.139 103.197 110.972 103.624 110.819C104.051 110.665 104.807 110.73 104.807 110.73L107.15 111.143L106.679 108.59Z" fill="#FE7259"/>
</g>
</svg>
