<svg width="29" height="27" viewBox="0 0 29 27" fill="none" xmlns="http://www.w3.org/2000/svg">
<path d="M28.0001 18H6.98262C7.31512 17.345 7.64887 16.6712 7.98262 15.9862C9.85012 16.1925 12.0601 14.8862 14.5751 12.0837C14.6501 12.2913 14.7339 12.505 14.8251 12.7212C15.6389 14.6275 16.6889 15.7137 17.9501 15.9525C19.2426 16.2025 20.5226 15.5487 21.8351 13.975C22.6876 14.9838 24.4376 16 28.0001 16C28.2653 16 28.5197 15.8946 28.7072 15.7071C28.8948 15.5196 29.0001 15.2652 29.0001 15C29.0001 14.7348 28.8948 14.4804 28.7072 14.2929C28.5197 14.1054 28.2653 14 28.0001 14C24.1714 14 23.0564 12.6762 23.0001 11.9725C22.994 11.7399 22.907 11.5167 22.754 11.3413C22.6011 11.1659 22.3917 11.0494 22.1621 11.0118C21.9324 10.9742 21.6969 11.0179 21.4959 11.1353C21.295 11.2527 21.1413 11.4365 21.0614 11.655C19.5401 13.9362 18.6389 14.0475 18.3114 13.9875C17.2701 13.7912 16.3014 11.3713 15.9751 9.79875C15.9324 9.60015 15.8303 9.41927 15.6822 9.28016C15.5342 9.14106 15.3473 9.05034 15.1464 9.02007C14.9456 8.98981 14.7403 9.02143 14.5578 9.11074C14.3754 9.20005 14.2244 9.3428 14.1251 9.52C11.6501 12.5975 9.99012 13.645 8.94887 13.9125C10.0101 11.5525 10.8026 9.48125 11.3101 7.7375C12.1626 4.8075 12.2251 2.75875 11.4989 1.475C11.1239 0.805 10.3376 0.00625 8.76012 0H8.72887C6.72887 0.01375 5.15387 1.9125 4.40137 5.2125C3.95262 7.17625 3.87887 9.36125 4.19762 11.2125C4.51637 13.0637 5.18012 14.4012 6.14137 15.1987C5.67637 16.165 5.20012 17.1088 4.73762 18.0025H2.00012C1.7349 18.0025 1.48055 18.1079 1.29301 18.2954C1.10547 18.4829 1.00012 18.7373 1.00012 19.0025C1.00012 19.2677 1.10547 19.5221 1.29301 19.7096C1.48055 19.8971 1.7349 20.0025 2.00012 20.0025H3.67637C2.26137 22.6275 1.16137 24.4575 1.14387 24.4875C1.07257 24.6001 1.02451 24.7258 1.0025 24.8573C0.98049 24.9887 0.984978 25.1232 1.0157 25.2529C1.04642 25.3826 1.10276 25.5049 1.1814 25.6125C1.26004 25.7201 1.3594 25.8109 1.47363 25.8795C1.58786 25.9482 1.71467 25.9933 1.84659 26.0123C1.97852 26.0312 2.1129 26.0236 2.24184 25.9899C2.37078 25.9561 2.49167 25.897 2.59742 25.8159C2.70317 25.7347 2.79163 25.6333 2.85762 25.5175C2.87637 25.485 4.26637 23.1688 5.94512 20.0025H28.0001C28.2653 20.0025 28.5197 19.8971 28.7072 19.7096C28.8948 19.5221 29.0001 19.2677 29.0001 19.0025C29.0001 18.7373 28.8948 18.4829 28.7072 18.2954C28.5197 18.1079 28.2653 18.0025 28.0001 18.0025V18ZM23.0001 12V11.9738C23.0009 11.9825 23.0009 11.9913 23.0001 12ZM6.34887 5.6575C6.84762 3.4725 7.81012 2 8.75012 2C9.40637 2 9.62512 2.2325 9.75012 2.45875C10.1251 3.125 10.5651 5.4825 7.04387 13.255C6.02012 11.8437 5.67137 8.625 6.34887 5.6575Z" fill="#08B5D6"/>
</svg>
