<svg width="24" height="24" viewBox="0 0 24 24" fill="none" xmlns="http://www.w3.org/2000/svg">
<rect width="24" height="24" rx="6.75824" fill="white"/>
<path d="M20.25 4.87497C19.5318 5.38158 18.7366 5.76906 17.895 6.02247C17.4433 5.50311 16.843 5.13499 16.1753 4.96792C15.5076 4.80084 14.8046 4.84287 14.1616 5.08831C13.5185 5.33376 12.9663 5.77077 12.5797 6.34026C12.1931 6.90975 11.9908 7.58423 12 8.27247V9.02247C10.682 9.05665 9.37596 8.76433 8.19826 8.17156C7.02056 7.57878 6.00774 6.70395 5.25 5.62497C5.25 5.62497 2.25 12.375 9 15.375C7.4554 16.4234 5.61537 16.9492 3.75 16.875C10.5 20.625 18.75 16.875 18.75 8.24997C18.7493 8.04106 18.7292 7.83267 18.69 7.62747C19.4555 6.87259 19.9956 5.91951 20.25 4.87497V4.87497Z" stroke="#292A2C" stroke-width="1.35165" stroke-linecap="round" stroke-linejoin="round"/>
</svg>
