<svg width="32" height="33" viewBox="0 0 32 33" fill="none" xmlns="http://www.w3.org/2000/svg">
<path opacity="0.2" d="M28 7.5V25.5C28 25.7652 27.8946 26.0196 27.7071 26.2071C27.5196 26.3946 27.2652 26.5 27 26.5H5C4.73478 26.5 4.48043 26.3946 4.29289 26.2071C4.10536 26.0196 4 25.7652 4 25.5V7.5C4 7.23478 4.10536 6.98043 4.29289 6.79289C4.48043 6.60536 4.73478 6.5 5 6.5H27C27.2652 6.5 27.5196 6.60536 27.7071 6.79289C27.8946 6.98043 28 7.23478 28 7.5Z" fill="#08B5D6"/>
<path d="M27 5.5H5C4.46957 5.5 3.96086 5.71071 3.58579 6.08579C3.21071 6.46086 3 6.96957 3 7.5V25.5C3 26.0304 3.21071 26.5391 3.58579 26.9142C3.96086 27.2893 4.46957 27.5 5 27.5H27C27.5304 27.5 28.0391 27.2893 28.4142 26.9142C28.7893 26.5391 29 26.0304 29 25.5V7.5C29 6.96957 28.7893 6.46086 28.4142 6.08579C28.0391 5.71071 27.5304 5.5 27 5.5ZM27 25.5H5V7.5H27V25.5ZM10 11C10 11.2967 9.91203 11.5867 9.7472 11.8334C9.58238 12.08 9.34811 12.2723 9.07403 12.3858C8.79994 12.4994 8.49834 12.5291 8.20736 12.4712C7.91639 12.4133 7.64912 12.2704 7.43934 12.0607C7.22956 11.8509 7.0867 11.5836 7.02882 11.2926C6.97094 11.0017 7.00065 10.7001 7.11418 10.426C7.22771 10.1519 7.41997 9.91762 7.66664 9.7528C7.91332 9.58797 8.20333 9.5 8.5 9.5C8.89782 9.5 9.27936 9.65804 9.56066 9.93934C9.84196 10.2206 10 10.6022 10 11ZM15 11C15 11.2967 14.912 11.5867 14.7472 11.8334C14.5824 12.08 14.3481 12.2723 14.074 12.3858C13.7999 12.4994 13.4983 12.5291 13.2074 12.4712C12.9164 12.4133 12.6491 12.2704 12.4393 12.0607C12.2296 11.8509 12.0867 11.5836 12.0288 11.2926C11.9709 11.0017 12.0006 10.7001 12.1142 10.426C12.2277 10.1519 12.42 9.91762 12.6666 9.7528C12.9133 9.58797 13.2033 9.5 13.5 9.5C13.8978 9.5 14.2794 9.65804 14.5607 9.93934C14.842 10.2206 15 10.6022 15 11Z" fill="#08B5D6"/>
</svg>
