<svg width="32" height="33" viewBox="0 0 32 33" fill="none" xmlns="http://www.w3.org/2000/svg">
<path opacity="0.2" d="M27.9998 12.5C27.9993 13.8911 27.636 15.2581 26.9459 16.466C26.2557 17.6738 25.2625 18.6808 24.0642 19.3876C22.866 20.0944 21.5042 20.4765 20.1132 20.4962C18.7222 20.5159 17.3501 20.1725 16.1323 19.5L9.12483 27.625C8.56125 28.1886 7.79686 28.5052 6.99983 28.5052C6.2028 28.5052 5.43842 28.1886 4.87483 27.625C4.31125 27.0614 3.99463 26.297 3.99463 25.5C3.99463 24.703 4.31125 23.9386 4.87483 23.375L12.9998 16.3675C12.2004 14.9208 11.8687 13.262 12.0504 11.6192C12.232 9.97632 12.918 8.43006 14.0142 7.19294C15.1103 5.95582 16.5627 5.08859 18.1717 4.71046C19.7808 4.33233 21.4674 4.46186 22.9998 5.08125L17.9998 10.5L18.7073 13.7925L21.9998 14.5L27.4186 9.5C27.8039 10.4532 28.0013 11.4719 27.9998 12.5Z" fill="#08B5D6"/>
<path d="M28.3452 9.12495C28.2846 8.97502 28.1885 8.84204 28.0651 8.73742C27.9418 8.6328 27.7949 8.55965 27.6371 8.52425C27.4793 8.48886 27.3152 8.49227 27.159 8.53419C27.0028 8.57611 26.8591 8.65529 26.7402 8.76495L21.7027 13.4137L19.549 12.9512L19.0865 10.7974L23.7352 5.75995C23.8449 5.64106 23.9241 5.49736 23.966 5.34115C24.0079 5.18494 24.0113 5.0209 23.9759 4.86309C23.9405 4.70527 23.8674 4.5584 23.7628 4.43506C23.6581 4.31173 23.5252 4.21561 23.3752 4.15495C22.0089 3.60224 20.5277 3.39355 19.0619 3.54722C17.596 3.70089 16.1904 4.21221 14.9684 5.03626C13.7463 5.86031 12.7454 6.97187 12.0535 8.27326C11.3616 9.57466 11 11.0261 11.0002 12.4999C10.9986 13.7445 11.254 14.9761 11.7502 16.1174L4.22399 22.6249C4.20524 22.6399 4.18774 22.6574 4.17024 22.6737C3.42001 23.4239 2.99854 24.4415 2.99854 25.5024C2.99854 26.0278 3.10201 26.548 3.30305 27.0334C3.50409 27.5187 3.79877 27.9597 4.17024 28.3312C4.54172 28.7027 4.98273 28.9973 5.46808 29.1984C5.95344 29.3994 6.47364 29.5029 6.99899 29.5029C8.05998 29.5029 9.07751 29.0814 9.82774 28.3312C9.84399 28.3149 9.86149 28.2962 9.87649 28.2787L16.3827 20.7499C17.7533 21.3516 19.2522 21.6019 20.7439 21.4782C22.2355 21.3545 23.6728 20.8608 24.9255 20.0417C26.1783 19.2226 27.207 18.1039 27.9184 16.7871C28.6299 15.4702 29.0017 13.9967 29.0002 12.4999C29.0022 11.3432 28.7797 10.197 28.3452 9.12495ZM20.0002 19.4999C18.8166 19.4983 17.6526 19.1973 16.6165 18.6249C16.4158 18.5141 16.183 18.4755 15.9573 18.5158C15.7315 18.5561 15.5265 18.6727 15.3765 18.8462L8.38899 26.9387C8.01087 27.2979 7.50737 27.4953 6.98584 27.4886C6.46432 27.4819 5.96604 27.2718 5.59724 26.903C5.22843 26.5342 5.01829 26.0359 5.01161 25.5143C5.00494 24.9928 5.20225 24.4893 5.56149 24.1112L13.6477 17.1249C13.8215 16.9749 13.9383 16.7696 13.9786 16.5436C14.0189 16.3176 13.9802 16.0846 13.869 15.8837C13.2315 14.7307 12.9324 13.4213 13.0059 12.1059C13.0794 10.7905 13.5227 9.5226 14.2847 8.44789C15.0467 7.37318 16.0965 6.53532 17.3134 6.03063C18.5304 5.52595 19.8651 5.37494 21.164 5.59495L17.264 9.8212C17.1555 9.93891 17.0768 10.081 17.0346 10.2354C16.9924 10.3898 16.9879 10.5522 17.0215 10.7087L17.729 13.9999C17.7695 14.1882 17.8634 14.3607 17.9996 14.4969C18.1357 14.633 18.3083 14.727 18.4965 14.7674L21.7902 15.4749C21.9468 15.5085 22.1091 15.504 22.2635 15.4618C22.418 15.4196 22.56 15.341 22.6777 15.2324L26.904 11.3324C27.0725 12.3362 27.0203 13.3646 26.751 14.3462C26.4818 15.3277 26.002 16.2388 25.3449 17.0161C24.6879 17.7935 23.8694 18.4183 22.9464 18.8472C22.0234 19.2762 21.018 19.4989 20.0002 19.4999Z" fill="#08B5D6"/>
</svg>
